<?xml version="1.0" encoding="UTF-8" standalone="no"?>
<!-- Created with Inkscape (http://www.inkscape.org/) -->

<svg
   xmlns:dc="http://purl.org/dc/elements/1.1/"
   xmlns:cc="http://creativecommons.org/ns#"
   xmlns:rdf="http://www.w3.org/1999/02/22-rdf-syntax-ns#"
   xmlns:svg="http://www.w3.org/2000/svg"
   xmlns="http://www.w3.org/2000/svg"
   xmlns:xlink="http://www.w3.org/1999/xlink"
   xmlns:sodipodi="http://sodipodi.sourceforge.net/DTD/sodipodi-0.dtd"
   xmlns:inkscape="http://www.inkscape.org/namespaces/inkscape"
   width="84.803886"
   height="84.437035"
   id="svg2"
   version="1.1"
   inkscape:version="0.91 r13725"
   sodipodi:docname="logo_flisol2015.svg"
   inkscape:export-filename="/home/ubaldino/versionados/scesi/flisol/2015/logo_flisol2015.png"
   inkscape:export-xdpi="90"
   inkscape:export-ydpi="90">
  <defs
     id="defs4">
    <linearGradient
       id="linearGradient5073">
      <stop
         id="stop5075"
         offset="0"
         style="stop-color:#ffffff;stop-opacity:1;" />
      <stop
         id="stop5077"
         offset="1"
         style="stop-color:#ffffff;stop-opacity:0;" />
    </linearGradient>
    <filter
       inkscape:collect="always"
       id="filter15293"
       style="color-interpolation-filters:sRGB">
      <feGaussianBlur
         inkscape:collect="always"
         stdDeviation="2.6999294"
         id="feGaussianBlur15295" />
    </filter>
    <filter
       height="1.3200001"
       y="-0.16"
       width="1.3200001"
       x="-0.16"
       id="filter4645"
       inkscape:collect="always"
       style="color-interpolation-filters:sRGB">
      <feGaussianBlur
         id="feGaussianBlur4647"
         stdDeviation="9.0848104"
         inkscape:collect="always" />
    </filter>
    <linearGradient
       id="linearGradient11729">
      <stop
         id="stop11731"
         offset="0"
         style="stop-color:#5bcaff;stop-opacity:1;" />
      <stop
         id="stop11733"
         offset="1"
         style="stop-color:#0071de;stop-opacity:1;" />
    </linearGradient>
    <linearGradient
       id="linearGradient11737">
      <stop
         style="stop-color:#ffffff;stop-opacity:0;"
         offset="0"
         id="stop11739" />
      <stop
         id="stop11741"
         offset="0.7044031"
         style="stop-color:#0046af;stop-opacity:0;" />
      <stop
         id="stop11743"
         offset="0.86842364"
         style="stop-color:#0044ab;stop-opacity:0.42352942;" />
      <stop
         style="stop-color:#003996;stop-opacity:0.64999998;"
         offset="0.95386213"
         id="stop11745" />
      <stop
         style="stop-color:#002c80;stop-opacity:1;"
         offset="1"
         id="stop11747" />
    </linearGradient>
    <filter
       inkscape:collect="always"
       id="filter14506-80-6-82"
       style="color-interpolation-filters:sRGB">
      <feGaussianBlur
         inkscape:collect="always"
         stdDeviation="0.70957443"
         id="feGaussianBlur14508-15-9-45" />
    </filter>
    <filter
       inkscape:collect="always"
       id="filter14506-80-6-121"
       style="color-interpolation-filters:sRGB">
      <feGaussianBlur
         inkscape:collect="always"
         stdDeviation="0.70957443"
         id="feGaussianBlur14508-15-9-4" />
    </filter>
    <filter
       inkscape:collect="always"
       id="filter14506-80-6-12"
       style="color-interpolation-filters:sRGB">
      <feGaussianBlur
         inkscape:collect="always"
         stdDeviation="0.70957443"
         id="feGaussianBlur14508-15-9-60" />
    </filter>
    <filter
       inkscape:collect="always"
       id="filter14506-80-6-3"
       style="color-interpolation-filters:sRGB">
      <feGaussianBlur
         inkscape:collect="always"
         stdDeviation="0.70957443"
         id="feGaussianBlur14508-15-9-16" />
    </filter>
    <filter
       inkscape:collect="always"
       id="filter14506-80-6-1"
       style="color-interpolation-filters:sRGB">
      <feGaussianBlur
         inkscape:collect="always"
         stdDeviation="0.70957443"
         id="feGaussianBlur14508-15-9-5" />
    </filter>
    <filter
       inkscape:collect="always"
       id="filter14506-80-6-2"
       style="color-interpolation-filters:sRGB">
      <feGaussianBlur
         inkscape:collect="always"
         stdDeviation="0.70957443"
         id="feGaussianBlur14508-15-9-3" />
    </filter>
    <filter
       inkscape:collect="always"
       id="filter14506-80-6-4"
       style="color-interpolation-filters:sRGB">
      <feGaussianBlur
         inkscape:collect="always"
         stdDeviation="0.70957443"
         id="feGaussianBlur14508-15-9-9" />
    </filter>
    <filter
       inkscape:collect="always"
       id="filter14506-80-6-61"
       style="color-interpolation-filters:sRGB">
      <feGaussianBlur
         inkscape:collect="always"
         stdDeviation="0.70957443"
         id="feGaussianBlur14508-15-9-2" />
    </filter>
    <filter
       inkscape:collect="always"
       id="filter14506-80-6-67"
       style="color-interpolation-filters:sRGB">
      <feGaussianBlur
         inkscape:collect="always"
         stdDeviation="0.70957443"
         id="feGaussianBlur14508-15-9-14" />
    </filter>
    <filter
       inkscape:collect="always"
       id="filter14506-80-6-66"
       style="color-interpolation-filters:sRGB">
      <feGaussianBlur
         inkscape:collect="always"
         stdDeviation="0.70957443"
         id="feGaussianBlur14508-15-9-6" />
    </filter>
    <filter
       inkscape:collect="always"
       id="filter14506-80-6-6"
       style="color-interpolation-filters:sRGB">
      <feGaussianBlur
         inkscape:collect="always"
         stdDeviation="0.70957443"
         id="feGaussianBlur14508-15-9-0" />
    </filter>
    <filter
       inkscape:collect="always"
       id="filter14506-80-6-94"
       style="color-interpolation-filters:sRGB">
      <feGaussianBlur
         inkscape:collect="always"
         stdDeviation="0.70957443"
         id="feGaussianBlur14508-15-9-1" />
    </filter>
    <filter
       inkscape:collect="always"
       id="filter14506-80-6-8"
       style="color-interpolation-filters:sRGB">
      <feGaussianBlur
         inkscape:collect="always"
         stdDeviation="0.70957443"
         id="feGaussianBlur14508-15-9-27" />
    </filter>
    <filter
       inkscape:collect="always"
       id="filter14506-80-3"
       style="color-interpolation-filters:sRGB">
      <feGaussianBlur
         inkscape:collect="always"
         stdDeviation="0.70957443"
         id="feGaussianBlur14508-15-7" />
    </filter>
    <filter
       inkscape:collect="always"
       id="filter14506-80-6"
       style="color-interpolation-filters:sRGB">
      <feGaussianBlur
         inkscape:collect="always"
         stdDeviation="0.70957443"
         id="feGaussianBlur14508-15-9" />
    </filter>
    <filter
       inkscape:collect="always"
       id="filter14506-80-3-8"
       style="color-interpolation-filters:sRGB">
      <feGaussianBlur
         inkscape:collect="always"
         stdDeviation="0.70957443"
         id="feGaussianBlur14508-15-7-9" />
    </filter>
    <filter
       inkscape:collect="always"
       id="filter14506-80-6-9"
       style="color-interpolation-filters:sRGB">
      <feGaussianBlur
         inkscape:collect="always"
         stdDeviation="0.70957443"
         id="feGaussianBlur14508-15-9-7" />
    </filter>
    <filter
       inkscape:collect="always"
       id="filter14511-3"
       style="color-interpolation-filters:sRGB">
      <feGaussianBlur
         inkscape:collect="always"
         stdDeviation="0.85627009"
         id="feGaussianBlur14513-8" />
    </filter>
    <filter
       inkscape:collect="always"
       id="filter14511-9"
       style="color-interpolation-filters:sRGB">
      <feGaussianBlur
         inkscape:collect="always"
         stdDeviation="0.85627009"
         id="feGaussianBlur14513-0" />
    </filter>
    <filter
       inkscape:collect="always"
       id="filter14506-80-6-946"
       style="color-interpolation-filters:sRGB">
      <feGaussianBlur
         inkscape:collect="always"
         stdDeviation="0.70957443"
         id="feGaussianBlur14508-15-9-03" />
    </filter>
    <filter
       inkscape:collect="always"
       id="filter14511-1"
       style="color-interpolation-filters:sRGB">
      <feGaussianBlur
         inkscape:collect="always"
         stdDeviation="0.85627009"
         id="feGaussianBlur14513-1" />
    </filter>
    <filter
       inkscape:collect="always"
       id="filter14506-80-6-24"
       style="color-interpolation-filters:sRGB">
      <feGaussianBlur
         inkscape:collect="always"
         stdDeviation="0.70957443"
         id="feGaussianBlur14508-15-9-58" />
    </filter>
    <filter
       inkscape:collect="always"
       id="filter14511"
       style="color-interpolation-filters:sRGB">
      <feGaussianBlur
         inkscape:collect="always"
         stdDeviation="0.85627009"
         id="feGaussianBlur14513" />
    </filter>
    <radialGradient
       inkscape:collect="always"
       xlink:href="#linearGradient11737"
       id="radialGradient3648"
       gradientUnits="userSpaceOnUse"
       cx="339.39481"
       cy="170.44995"
       fx="339.39481"
       fy="170.44995"
       r="68.636078"
       gradientTransform="matrix(0.30222918,0,0,0.30222918,174.38356,963.46292)" />
    <linearGradient
       x1="1611.4"
       y1="1805.7"
       gradientTransform="matrix(0.30503,0,0,-0.30503,108.46,1239.8)"
       x2="4028.6001"
       gradientUnits="userSpaceOnUse"
       y2="1794.3"
       id="linearGradient7859">
      <stop
         offset="0"
         style="stop-color:#ff983d;stop-opacity:1;"
         id="stop7739" />
      <stop
         offset="0.10874"
         style="stop-color:#ffba7c;stop-opacity:1;"
         id="stop7741" />
      <stop
         offset="0.90777999"
         style="stop-color:#ffba7c;stop-opacity:1;"
         id="stop7745" />
      <stop
         offset="1"
         style="stop-color:#ff983d;stop-opacity:1;"
         id="stop7743" />
    </linearGradient>
    <linearGradient
       x1="356.95001"
       y1="1934"
       gradientTransform="matrix(0.30503,0,0,-0.30503,108.46,1239.8)"
       x2="5287.5"
       gradientUnits="userSpaceOnUse"
       y2="1934"
       id="linearGradient7857">
      <stop
         offset="0"
         style="stop-color:#ffbd83;stop-opacity:1;"
         id="stop7725" />
      <stop
         offset="0.28687999"
         style="stop-color:#e56c00;stop-opacity:1;"
         id="stop7727" />
      <stop
         offset="0.37529999"
         style="stop-color:#8c4200;stop-opacity:1;"
         id="stop7729" />
      <stop
         offset="0.62343001"
         style="stop-color:#9c4a00;stop-opacity:1;"
         id="stop7731" />
      <stop
         offset="0.76204002"
         style="stop-color:#e56c00;stop-opacity:1;"
         id="stop7733" />
      <stop
         offset="1"
         style="stop-color:#ffbd83;stop-opacity:1;"
         id="stop7735" />
    </linearGradient>
    <radialGradient
       r="215.60001"
       gradientTransform="matrix(-3.0771,-0.20856,-0.034588,0.51031,-92.693,-360.32)"
       cx="322.73001"
       cy="259.19"
       gradientUnits="userSpaceOnUse"
       fy="255.75999"
       fx="323.38"
       id="radialGradient4010">
      <stop
         offset="0"
         stop-color="#244793"
         id="stop3936" />
      <stop
         offset="1"
         stop-color="#3d6acf"
         id="stop3938" />
    </radialGradient>
    <linearGradient
       x1="181.32001"
       y1="-43.945"
       gradientTransform="matrix(1.1448,0,0,-1.1448,-1465.7,-454.16)"
       x2="135.62"
       gradientUnits="userSpaceOnUse"
       xlink:href="#linearGradient3942"
       y2="-21.722"
       id="linearGradient3956" />
    <linearGradient
       x1="449.01001"
       y1="167.23"
       gradientTransform="matrix(1.1448,0,0,-1.1448,-1465.7,-216.45)"
       x2="513.41998"
       gradientUnits="userSpaceOnUse"
       xlink:href="#linearGradient3942"
       y2="167.23"
       id="linearGradient3948" />
    <linearGradient
       id="linearGradient3942">
      <stop
         offset="0"
         stop-color="#182f62"
         id="stop3944" />
      <stop
         offset="1"
         stop-color="#2951aa"
         id="stop3946" />
    </linearGradient>
    <radialGradient
       r="177.95"
       gradientTransform="matrix(0.7513,-2.6439e-4,0.0064698,0.031123,199.31,442.45)"
       cx="828.15997"
       cy="681.67999"
       gradientUnits="userSpaceOnUse"
       xlink:href="#linearGradient23850-5-3"
       id="radialGradient8381" />
    <radialGradient
       r="177.95"
       gradientTransform="matrix(0.7513,-2.6439e-4,0.0064698,0.031123,199.31,574.66)"
       cx="828.15997"
       cy="681.67999"
       gradientUnits="userSpaceOnUse"
       xlink:href="#linearGradient23850-5-3"
       id="radialGradient8379" />
    <radialGradient
       r="177.95"
       gradientTransform="matrix(0.99996,-5.2878e-4,0.0086111,0.062247,-6.5605,421.64)"
       cx="828.15997"
       cy="681.67999"
       gradientUnits="userSpaceOnUse"
       xlink:href="#linearGradient23850-5-3"
       id="radialGradient8377" />
    <linearGradient
       id="linearGradient23850-5-3">
      <stop
         offset="0"
         style="stop-color:#fff6cf"
         id="stop23852-4-0" />
      <stop
         offset="1"
         style="stop-color:#fff6cf;stop-opacity:0"
         id="stop23854-5-2" />
    </linearGradient>
    <radialGradient
       r="177.95"
       gradientTransform="matrix(0.99996,-0.017338,0.0086111,2.041,-6.5605,-919.65)"
       cx="828.15997"
       cy="681.67999"
       gradientUnits="userSpaceOnUse"
       xlink:href="#linearGradient23850-5-3"
       id="radialGradient8375" />
    <linearGradient
       x1="644.83002"
       y1="478.28"
       gradientTransform="matrix(2.0095,0,0,1,-649.46,0)"
       x2="827.37"
       gradientUnits="userSpaceOnUse"
       y2="478.28"
       id="linearGradient8373">
      <stop
         offset="0"
         style="stop-color:#a3a3a3"
         id="stop5855-2-6-7-5-4-8-4" />
      <stop
         offset="0"
         style="stop-color:#980101"
         id="stop5857-6-2-8-2-2-5-6" />
      <stop
         offset=".17497"
         style="stop-color:#fd3301"
         id="stop5859-5-5-5-1-4-8-2" />
      <stop
         offset=".47699"
         style="stop-color:#f39f3e"
         id="stop5861-1-8-4-9-9-5-9" />
      <stop
         offset=".76874"
         style="stop-color:#fd3301"
         id="stop5863-8-8-1-8-9-8-8" />
      <stop
         offset="1"
         style="stop-color:#980101"
         id="stop5865-0-2-5-8-4-3-9" />
    </linearGradient>
    <linearGradient
       x1="652.82001"
       y1="450.42999"
       x2="704.66998"
       gradientUnits="userSpaceOnUse"
       xlink:href="#linearGradient6387-3-3-6-2-8-4-7"
       y2="450.42999"
       id="linearGradient8371" />
    <linearGradient
       id="linearGradient8490">
      <stop
         offset="0"
         style="stop-color:#670101"
         id="stop8492" />
      <stop
         offset=".28287"
         style="stop-color:#c62400"
         id="stop8494" />
      <stop
         offset=".44252"
         style="stop-color:#de5116"
         id="stop8496" />
      <stop
         offset=".69376"
         style="stop-color:#e27f4e"
         id="stop8498" />
      <stop
         offset=".86399"
         style="stop-color:#c63200"
         id="stop8500" />
      <stop
         offset="1"
         style="stop-color:#3c0000"
         id="stop8502" />
    </linearGradient>
    <radialGradient
       r="19.094"
       gradientTransform="matrix(-2.2091,0,0,-5.452,2936.9,-2774.2)"
       cx="914.62"
       cy="-407.23999"
       gradientUnits="userSpaceOnUse"
       xlink:href="#linearGradient8490"
       fy="-414.95001"
       fx="920.78998"
       id="radialGradient8369" />
    <linearGradient
       id="linearGradient6387-3-3-6-2-8-4-7">
      <stop
         offset="0"
         style="stop-color:#980101"
         id="stop6389-0-5-8-3-6-9-2" />
      <stop
         offset=".44671"
         style="stop-color:#fb8b00"
         id="stop6391-6-5-4-3-4-0-4" />
      <stop
         offset=".81367"
         style="stop-color:#d40000"
         id="stop6393-0-4-6-3-7-7-4" />
      <stop
         offset="1"
         style="stop-color:#888888"
         id="stop6395-8-3-1-6-7-9-0" />
    </linearGradient>
    <linearGradient
       x1="624.28003"
       y1="422.98999"
       x2="649.09998"
       gradientUnits="userSpaceOnUse"
       xlink:href="#linearGradient6387-3-3-6-2-8-4-7"
       y2="422.98999"
       id="linearGradient8367" />
    <linearGradient
       id="linearGradient4989-4-0">
      <stop
         offset="0"
         style="stop-color:#980101"
         id="stop4991-0-7" />
      <stop
         offset=".20109"
         style="stop-color:#f56a0a"
         id="stop4993-1-3" />
      <stop
         offset=".39499"
         style="stop-color:#d40000"
         id="stop4995-9-7" />
      <stop
         offset="1"
         style="stop-color:#660a0a"
         id="stop4997-8-4" />
    </linearGradient>
    <radialGradient
       r="45.984001"
       gradientTransform="matrix(-1.958,0,0,-13.995,1862.1,6882.8)"
       cx="638.15002"
       cy="461.10001"
       gradientUnits="userSpaceOnUse"
       xlink:href="#linearGradient4989-4-0"
       id="radialGradient8365" />
    <filter
       x="-0.019646"
       y="-0.10001"
       width="1.0393"
       height="1.2"
       id="filter7206"
       style="color-interpolation-filters:sRGB">
      <feGaussianBlur
         stdDeviation="4.5426535"
         id="feGaussianBlur7208" />
    </filter>
    <linearGradient
       x1="356.95001"
       y1="1934"
       gradientTransform="matrix(0.30503,0,0,-0.30503,108.46,1239.8)"
       x2="5287.5"
       gradientUnits="userSpaceOnUse"
       y2="1934"
       id="linearGradient7857-1">
      <stop
         offset="0"
         style="stop-color:#ffbd83;stop-opacity:1;"
         id="stop7725-6" />
      <stop
         offset="0.28687999"
         style="stop-color:#e56c00;stop-opacity:1;"
         id="stop7727-9" />
      <stop
         offset="0.37529999"
         style="stop-color:#8c4200;stop-opacity:1;"
         id="stop7729-6" />
      <stop
         offset="0.62343001"
         style="stop-color:#9c4a00;stop-opacity:1;"
         id="stop7731-4" />
      <stop
         offset="0.76204002"
         style="stop-color:#e56c00;stop-opacity:1;"
         id="stop7733-5" />
      <stop
         offset="1"
         style="stop-color:#ffbd83;stop-opacity:1;"
         id="stop7735-2" />
    </linearGradient>
    <linearGradient
       x1="1611.4"
       y1="1805.7"
       gradientTransform="matrix(0.30503,0,0,-0.30503,108.46,1239.8)"
       x2="4028.6001"
       gradientUnits="userSpaceOnUse"
       y2="1794.3"
       id="linearGradient7859-7">
      <stop
         offset="0"
         style="stop-color:#ff983d;stop-opacity:1;"
         id="stop7739-1" />
      <stop
         offset="0.10874"
         style="stop-color:#ffba7c;stop-opacity:1;"
         id="stop7741-7" />
      <stop
         offset="0.90777999"
         style="stop-color:#ffba7c;stop-opacity:1;"
         id="stop7745-7" />
      <stop
         offset="1"
         style="stop-color:#ff983d;stop-opacity:1;"
         id="stop7743-6" />
    </linearGradient>
  </defs>
  <sodipodi:namedview
     id="base"
     pagecolor="#ffffff"
     bordercolor="#666666"
     borderopacity="1.0"
     inkscape:pageopacity="0.0"
     inkscape:pageshadow="2"
     inkscape:zoom="3.959798"
     inkscape:cx="-7.1477489"
     inkscape:cy="50.629687"
     inkscape:document-units="px"
     inkscape:current-layer="layer1"
     showgrid="false"
     borderlayer="true"
     inkscape:showpageshadow="false"
     fit-margin-top="0"
     fit-margin-left="0"
     fit-margin-right="0"
     fit-margin-bottom="0"
     inkscape:snap-bbox="true"
     inkscape:bbox-nodes="true"
     inkscape:window-width="1366"
     inkscape:window-height="739"
     inkscape:window-x="0"
     inkscape:window-y="0"
     inkscape:window-maximized="1" />
  <metadata
     id="metadata7">
    <rdf:RDF>
      <cc:Work
         rdf:about="">
        <dc:format>image/svg+xml</dc:format>
        <dc:type
           rdf:resource="http://purl.org/dc/dcmitype/StillImage" />
        <dc:title></dc:title>
      </cc:Work>
    </rdf:RDF>
  </metadata>
  <g
     inkscape:label="Capa 1"
     inkscape:groupmode="layer"
     id="layer1"
     transform="translate(-234.40074,-972.59257)">
    <path
       inkscape:connector-curvature="0"
       style="color:#000000;display:inline;overflow:visible;visibility:visible;fill:#ffffff;fill-opacity:1;fill-rule:nonzero;stroke:#ffffff;stroke-width:1.3893801;stroke-linecap:round;stroke-linejoin:round;stroke-miterlimit:4;stroke-dasharray:none;stroke-opacity:1;marker:none;enable-background:accumulate"
       d="m 291.03146,975.66891 c -0.52148,0.005 -1.04176,0.18988 -1.51095,0.59917 l -8.82257,10.1338 c -0.88345,0.94272 -1.10086,1.98363 -0.22577,3.1782 3.35183,3.83166 7.06847,6.62561 7.06847,6.62561 0.66212,0.45652 1.34033,0.33472 2.03197,-0.21709 l 4.4547,-4.61101 c 0.7539,-0.88512 0.5325,-1.64011 -0.15631,-2.32721 l -4.77599,-4.57627 -0.46023,0.46023 4.0813,5.38385 -4.24629,4.42865 -6.18275,-6.34773 9.00492,-9.50857 10.51588,11.37555 -10.15116,10.22061 c -3.54571,-3.59009 -8.39953,-5.88292 -13.7896,-6.10457 l -0.63391,-18.13142 c 0,0 -6.26846,-1.8004 -6.69507,1.02467 -0.42665,2.82508 4.48075,1.83225 4.48075,1.83225 l 1.37201,15.2745 c -3.71662,0.10961 -7.18951,1.19463 -10.15984,3.0219 l -11.41028,-10.91532 c -1.10965,-1.23321 -3.67472,-1.31097 -4.776,-0.0347 l -11.65342,12.42627 c -0.97783,1.00092 -1.16998,2.34892 -0.23446,3.42132 l 10.12511,8.8225 c 0.94276,0.8835 1.98363,1.1009 3.1782,0.2258 3.8317,-3.3518 6.62561,-7.0684 6.62561,-7.0684 0.45653,-0.6621 0.33468,-1.3403 -0.21709,-2.032 l -4.61101,-4.45468 c -0.88516,-0.7539 -1.64007,-0.52382 -2.32721,0.16499 l -4.57627,4.76729 0.46023,0.4689 5.38385,-4.08995 4.42865,4.24625 -6.34773,6.1827 -9.50857,-9.0048 11.37555,-10.51591 10.36825,10.30751 c -2.12932,2.1092 -3.79465,4.6848 -4.84546,7.5547 -0.11549,0.3154 -0.2297,0.6328 -0.32998,0.9552 -0.50715,1.6305 -0.80954,3.3469 -0.89441,5.1233 l -18.30509,0.6339 c 0,0 -1.80909,6.2685 1.01599,6.6951 2.82507,0.4266 1.83224,-4.4808 1.83224,-4.4808 l 15.43949,-1.372 c 0.0842,3.6885 1.13011,7.1434 2.90901,10.1078 l -10.96742,11.471 c -1.23325,1.1096 -1.31097,3.6661 -0.0347,4.7673 l 12.42627,11.6535 c 1.00093,0.9778 2.34895,1.1786 3.42135,0.2431 l 8.82256,-10.1338 c 0.88345,-0.9427 1.10086,-1.9836 0.22577,-3.1782 -3.35183,-3.8317 -7.06847,-6.6256 -7.06847,-6.6256 -0.66212,-0.4565 -1.34029,-0.3347 -2.03197,0.2171 l -4.4547,4.611 c -0.75386,0.8852 -0.52382,1.6401 0.16499,2.3272 l 4.76731,4.5763 0.46892,-0.4602 -4.08999,-5.3752 4.24629,-4.4373 6.18275,6.3477 -9.00492,9.5086 -10.51587,-11.3756 10.32483,-10.3943 c 3.4892,3.6012 8.28057,5.9351 13.61592,6.2349 l 0.63391,18.1748 c 0,0 6.26846,1.8004 6.69507,-1.0247 0.42665,-2.8251 -4.48075,-1.8322 -4.48075,-1.8322 l -1.36333,-15.2919 c 0.24964,0 0.49939,0 0.74679,-0.017 3.46334,-0.1755 6.70391,-1.2119 9.50857,-2.8916 l 11.31477,10.8198 c 1.10964,1.2332 3.66603,1.311 4.76731,0.035 l 11.65342,-12.4262 c 0.97783,-1.001 1.17866,-2.349 0.24314,-3.4214 l -10.13379,-8.8226 c -0.94272,-0.8834 -1.98363,-1.1008 -3.1782,-0.2257 -3.83166,3.3518 -6.62561,7.0684 -6.62561,7.0684 -0.45652,0.6622 -0.32604,1.3403 0.22577,2.032 l 4.60233,4.4547 c 0.88512,0.7539 1.64011,0.5238 2.32721,-0.165 l 4.57627,-4.7673 -0.46023,-0.4602 -5.37517,4.0813 -4.43733,-4.2463 6.34773,-6.1828 9.50857,9.005 -11.37555,10.5158 -10.23799,-10.1685 c 3.64187,-3.5209 5.98524,-8.3728 6.25221,-13.7722 l 18.00115,-0.6339 c 0,0 1.80041,-6.2685 -1.02467,-6.6951 -2.82507,-0.4266 -1.83224,4.4807 -1.83224,4.4807 l -15.12688,1.3547 c -0.004,-0.1999 -0.007,-0.4007 -0.0174,-0.5992 -0.17961,-3.5432 -1.25562,-6.8508 -3.00454,-9.6996 l 10.7677,-11.26261 c 1.23321,-1.10964 1.31965,-3.66603 0.0434,-4.76731 l -12.43496,-11.65343 c -0.563,-0.55002 -1.23992,-0.8482 -1.91039,-0.84231 z m -21.32699,7.17268 c -0.86169,-0.006 -1.58106,0.32748 -1.87566,0.9552 -0.47137,1.00434 0.33555,2.38379 1.80619,3.074 1.47064,0.69021 3.04551,0.43122 3.51687,-0.57312 0.47136,-1.00434 -0.34423,-2.37511 -1.81488,-3.06532 -0.55149,-0.25883 -1.1155,-0.38738 -1.63252,-0.39076 z m 2.14486,5.462 c -0.8617,-0.006 -1.58975,0.33617 -1.88435,0.96388 -0.47136,1.00434 0.34424,2.37511 1.81488,3.06532 1.47064,0.69021 3.03682,0.43122 3.50818,-0.57312 0.47137,-1.00434 -0.33555,-2.37511 -1.80619,-3.06532 -0.55149,-0.25882 -1.11551,-0.38738 -1.63252,-0.39076 z m 35.57681,17.50621 c -0.89849,-0.01 -1.90535,0.7502 -2.46615,1.9451 -0.69021,1.4706 -0.4399,3.0455 0.56444,3.5169 1.00434,0.4713 2.37511,-0.3443 3.06532,-1.8149 0.69021,-1.4707 0.4399,-3.0455 -0.56444,-3.5169 -0.18831,-0.088 -0.39182,-0.1279 -0.59917,-0.1302 z m -5.462,2.1448 c -0.89849,-0.01 -1.91404,0.7416 -2.47483,1.9365 -0.69021,1.4706 -0.43122,3.0455 0.57312,3.5168 1.00434,0.4714 2.37511,-0.3355 3.06532,-1.8062 0.69021,-1.4706 0.4399,-3.0455 -0.56444,-3.5168 -0.18831,-0.088 -0.39182,-0.1279 -0.59917,-0.1303 z m -48.91486,8.4405 c -0.8985,-0.01 -1.91404,0.7502 -2.47484,1.9451 -0.69021,1.4707 -0.43122,3.0455 0.57312,3.5169 1.00434,0.4714 2.37511,-0.3355 3.06532,-1.8062 0.69021,-1.4706 0.43991,-3.0455 -0.56443,-3.5169 -0.18832,-0.088 -0.39183,-0.1365 -0.59917,-0.1389 z m -5.47069,2.1449 c -0.89849,-0.01 -1.90535,0.7502 -2.46615,1.9451 -0.69021,1.4706 -0.4399,3.0455 0.56444,3.5169 1.00434,0.4713 2.38379,-0.3443 3.074,-1.8149 0.69021,-1.4707 0.43122,-3.0455 -0.57312,-3.5169 -0.18831,-0.088 -0.39182,-0.1279 -0.59917,-0.1302 z m 32.71122,18.6784 c -0.86169,-0.01 -1.58106,0.3362 -1.87566,0.9639 -0.47137,1.0044 0.33555,2.3751 1.80619,3.0653 1.47064,0.6903 3.04551,0.4313 3.51687,-0.5731 0.47136,-1.0043 -0.33555,-2.3751 -1.80619,-3.0653 -0.55149,-0.2588 -1.12419,-0.3874 -1.64121,-0.3908 z m 2.14486,5.4707 c -0.8617,-0.01 -1.58975,0.3275 -1.88435,0.9552 -0.47136,1.0044 0.34424,2.3751 1.81488,3.0653 1.47064,0.6903 3.0455,0.44 3.51687,-0.5644 0.47136,-1.0043 -0.34424,-2.3751 -1.81488,-3.0653 -0.55149,-0.2588 -1.11551,-0.3874 -1.63252,-0.3908 z"
       id="path6423" />
    <path
       inkscape:connector-curvature="0"
       id="path20109"
       d="m 271.5115,1009.3337 -19.4126,-19.29581 -11.37873,10.51751 9.50909,9.0042 6.34976,-6.1806 -4.43359,-4.2493 -5.38001,4.0859 -0.46183,-0.4648 4.57947,-4.77122 c 0.68714,-0.68881 1.43805,-0.91281 2.32321,-0.1589 l 4.61086,4.45142 c 0.55177,0.6916 0.67367,1.3707 0.21715,2.0328 0,0 -2.79054,3.7152 -6.62224,7.067 -1.19457,0.8751 -2.23286,0.6588 -3.17563,-0.2247 l -10.13328,-8.8241 c -0.93552,-1.0724 -0.73566,-2.41552 0.24216,-3.41645 l 11.6538,-12.43232 c 1.10128,-1.27623 3.65821,-1.19457 4.76785,0.0386 l 20.32103,19.43377 z"
       style="color:#000000;display:inline;overflow:visible;visibility:visible;fill:#ff6600;fill-opacity:1;fill-rule:nonzero;stroke:none;stroke-width:2.59126377;marker:none;enable-background:accumulate"
       sodipodi:nodetypes="cccccccccccccccccccc" />
    <path
       transform="matrix(0,-0.35274653,0.35274653,0,696.51377,533.84666)"
       sodipodi:nodetypes="cccccccccccccccccccccccccccccccccc"
       inkscape:connector-curvature="0"
       id="path20111"
       d="m -1323.2724,-1299.9234 c -1.0643,-0.099 -2.0814,0.2102 -3.1562,1.125 -0.02,0.017 -0.042,0.014 -0.063,0.031 l -24.7812,28.5313 c -0.02,0.021 -0.041,0.042 -0.062,0.062 -1.033,1.1023 -1.5008,2.0454 -1.5937,2.9062 -0.091,0.8461 0.1372,1.7967 1.0937,3.125 0.017,0.023 0.014,0.039 0.031,0.063 9.2143,10.4941 19.3609,18.1454 19.5,18.25 0.8033,0.6802 2.5621,0.8617 3.2946,0.3254 l 12.5021,-13.4846 c 0.7731,-1.44 0.092,-2.7525 -0.7664,-3.6221 l -11.7412,-13.0598 11.8974,13.6223 c 0.6453,0.8488 -0.051,1.5235 -0.7827,2.2991 l -12.0718,12.5365 c -0.8378,0.8893 -1.5643,1.3557 -2.4188,0.4824 l -17.7267,-17.7558 c -0.815,-0.8294 -0.8295,-2.3111 -0.031,-3.1563 l 25.5312,-26.9687 c 0.8561,-0.8928 2.4733,-0.8776 3.3126,0.031 l 29.8124,32.25 c 0.7806,0.8423 0.7661,2.2983 -0.031,3.125 l -53.1562,53.4687 6.4374,6.8125 53.4376,-55.875 c 0.04,-0.043 0.082,-0.085 0.125,-0.125 1.1209,-1.0087 1.9378,-3.0223 1.9687,-5.0938 0.031,-2.0714 -0.7094,-4.0211 -1.8437,-5 -0.021,-0.02 -0.042,-0.041 -0.063,-0.062 l -35.25,-33.0626 c -0.01,-0.01 -0.021,-0.021 -0.031,-0.031 -1.1159,-1.0901 -2.2918,-1.6494 -3.375,-1.75 z"
       style="color:#000000;display:inline;overflow:visible;visibility:visible;opacity:0.6857143;fill:#ff6600;fill-opacity:1;fill-rule:nonzero;stroke:none;stroke-width:2.59126377;marker:none;filter:url(#filter14511);enable-background:accumulate" />
    <path
       transform="matrix(0.35274653,0,0,0.35274653,757.95055,1434.7056)"
       inkscape:connector-curvature="0"
       id="path20113"
       d="m -1473.2089,-1233.1614 35.1032,-37.1835 c 0,0 2.8603,-1.6468 5.3739,-1.6468 2.5135,0 4.8538,2.1669 4.8538,2.1669 l 33.4564,31.6362 -1.8202,0.5201 -34.1498,-31.8963 c 0,0 -1.6468,-1.0401 -3.727,-0.7801 -2.0802,0.2601 -3.9004,1.8202 -3.9004,1.8202 z"
       style="color:#000000;display:inline;overflow:visible;visibility:visible;opacity:0.56734691;fill:#ff6600;fill-opacity:1;fill-rule:nonzero;stroke:none;stroke-width:1px;marker:none;filter:url(#filter14506-80-6-24);enable-background:accumulate" />
    <path
       style="color:#000000;display:inline;overflow:visible;visibility:visible;fill:#ff6600;fill-opacity:1;fill-rule:nonzero;stroke:none;stroke-width:2.59126377;marker:none;enable-background:accumulate"
       d="m 261.14434,1015.0246 -20.2069,1.8038 c 0,0 0.99276,4.9031 -1.83231,4.4764 -2.82507,-0.4266 -1.01897,-6.6916 -1.01897,-6.6916 l 23.18844,-0.8043 z"
       id="path20115"
       inkscape:connector-curvature="0"
       sodipodi:nodetypes="ccsccc" />
    <path
       style="color:#000000;display:inline;overflow:visible;visibility:visible;opacity:0.6857143;fill:#ff6600;fill-opacity:1;fill-rule:nonzero;stroke:none;stroke-width:2.59126377;marker:none;filter:url(#filter14511-1);enable-background:accumulate"
       d="m -1269.6991,-1208.0559 c -1.0072,0.083 -1.9322,0.2662 -2.6875,0.5312 -1.5106,0.5299 -2.2819,1.1806 -2.5,2.625 -0.2411,1.5967 0.1437,2.1992 0.9063,2.7812 0.7625,0.5821 2.1451,0.987 3.6562,1.125 3.0223,0.2762 6.375,-0.375 6.375,-0.375 0.8234,-0.163 1.7118,0.5072 1.7812,1.3438 l 3.7931,44.1749 1.1389,-0.01 -1.6194,-50.9477 c -1.2298,-0.3219 -4.1371,-1.0363 -7.6563,-1.25 -1.0938,-0.067 -2.1803,-0.083 -3.1875,0 z"
       id="path20117"
       inkscape:connector-curvature="0"
       sodipodi:nodetypes="ccscccccccccc"
       transform="matrix(-3.4458147e-4,-0.35274636,0.35274636,-3.4458147e-4,663.73206,570.38838)"
       inkscape:transform-center-x="-24.590277"
       inkscape:transform-center-y="6.7306959" />
    <path
       transform="matrix(0.35274653,0,0,0.35274653,757.95055,1434.7056)"
       inkscape:connector-curvature="0"
       id="path20119"
       d="m -1420.4928,-1191.5216 c 0,0 -51.7161,1.3282 -52.0482,1.4942 -0.332,0.166 -1.3282,5.4787 -1.3282,6.5579 0,1.0791 0.3321,3.4865 0.3321,3.4865 0,0 1.2452,-8.3012 1.9093,-8.6332 0.664,-0.3321 51.135,-1.9923 51.135,-1.9923 z"
       style="color:#000000;display:inline;overflow:visible;visibility:visible;opacity:0.56734691;fill:#ff6600;fill-opacity:1;fill-rule:nonzero;stroke:none;stroke-width:1px;marker:none;filter:url(#filter14506-80-6-946);enable-background:accumulate" />
    <ellipse
       style="color:#000000;display:inline;overflow:visible;visibility:visible;fill:#ff6600;fill-opacity:1;fill-rule:nonzero;stroke:none;stroke-width:2.59126377;marker:none;enable-background:accumulate"
       id="path20121"
       transform="matrix(0.90525856,0.42486108,-0.42486108,0.90525856,0,0)"
       cx="661.46356"
       cy="815.44366"
       rx="2.0088406"
       ry="2.9415166" />
    <ellipse
       transform="matrix(0.90525856,0.42486108,-0.42486108,0.90525856,0,0)"
       id="path20123"
       style="color:#000000;display:inline;overflow:visible;visibility:visible;fill:#ff6600;fill-opacity:1;fill-rule:nonzero;stroke:none;stroke-width:2.59126377;marker:none;enable-background:accumulate"
       cx="657.42578"
       cy="819.70465"
       rx="2.0088406"
       ry="2.9415166" />
    <ellipse
       transform="matrix(0.27591462,0.12949382,-0.12949382,0.27591462,358.90265,898.50158)"
       id="path20125"
       style="color:#000000;display:inline;overflow:visible;visibility:visible;opacity:0.6857143;fill:#ff6600;fill-opacity:1;fill-rule:nonzero;stroke:none;stroke-width:2.99897122;marker:none;filter:url(#filter14511-9);enable-background:accumulate"
       cx="-148.45714"
       cy="505.67648"
       rx="4.8000002"
       ry="7.0285716" />
    <ellipse
       style="color:#000000;display:inline;overflow:visible;visibility:visible;opacity:0.6857143;fill:#ff6600;fill-opacity:1;fill-rule:nonzero;stroke:none;stroke-width:3.10946083;marker:none;filter:url(#filter14511-3);enable-background:accumulate"
       id="path20127"
       transform="matrix(0.26611045,0.12489247,-0.12489247,0.26611045,349.5382,904.79345)"
       cx="-148.45714"
       cy="505.67648"
       rx="4.8000002"
       ry="7.0285716" />
    <path
       sodipodi:nodetypes="cccccccccccccccccccc"
       style="color:#000000;display:inline;overflow:visible;visibility:visible;fill:#ff6600;fill-opacity:1;fill-rule:nonzero;stroke:none;stroke-width:2.59126377;marker:none;enable-background:accumulate"
       d="m 282.09387,1020.6554 19.41264,19.2958 11.37873,-10.5175 -9.5091,-9.0042 -6.34975,6.1806 4.43355,4.2493 5.38001,-4.0859 0.46187,0.4648 -4.57951,4.7712 c -0.6871,0.6888 -1.43805,0.9128 -2.32317,0.1589 l -4.61086,-4.4514 c -0.55181,-0.6917 -0.67367,-1.3707 -0.21715,-2.0328 0,0 2.79054,-3.7152 6.62219,-7.0671 1.19458,-0.875 2.23291,-0.6587 3.17564,0.2248 l 10.13328,8.8241 c 0.93552,1.0724 0.73566,2.4155 -0.24216,3.4164 l -11.6538,12.4323 c -1.10128,1.2763 -3.65821,1.1946 -4.76785,-0.039 l -20.32103,-19.4338 z"
       id="path20129"
       inkscape:connector-curvature="0" />
    <path
       transform="matrix(0,0.35274653,-0.35274653,0,-142.90841,1496.1424)"
       style="color:#000000;display:inline;overflow:visible;visibility:visible;opacity:0.6857143;fill:#ffb44f;fill-opacity:1;fill-rule:nonzero;stroke:none;stroke-width:2.59126377;marker:none;filter:url(#filter14511);enable-background:accumulate"
       d="m -1323.2724,-1299.9234 c -1.0643,-0.099 -2.0814,0.2102 -3.1562,1.125 -0.02,0.017 -0.042,0.014 -0.063,0.031 l -24.7812,28.5313 c -0.02,0.021 -0.041,0.042 -0.062,0.062 -1.033,1.1023 -1.5008,2.0454 -1.5937,2.9062 -0.091,0.8461 0.1372,1.7967 1.0937,3.125 0.017,0.023 0.014,0.039 0.031,0.063 9.2143,10.4941 19.3609,18.1454 19.5,18.25 0.8033,0.6802 2.5621,0.8617 3.2946,0.3254 l 12.5021,-13.4846 c 0.7731,-1.44 0.092,-2.7525 -0.7664,-3.6221 l -11.7412,-13.0598 11.8974,13.6223 c 0.6453,0.8488 -0.051,1.5235 -0.7827,2.2991 l -12.0718,12.5365 c -0.8378,0.8893 -1.5643,1.3557 -2.4188,0.4824 l -17.7267,-17.7558 c -0.815,-0.8294 -0.8295,-2.3111 -0.031,-3.1563 l 25.5312,-26.9687 c 0.8561,-0.8928 2.4733,-0.8776 3.3126,0.031 l 29.8124,32.25 c 0.7806,0.8423 0.7661,2.2983 -0.031,3.125 l -53.1562,53.4687 6.4374,6.8125 53.4376,-55.875 c 0.04,-0.043 0.082,-0.085 0.125,-0.125 1.1209,-1.0087 1.9378,-3.0223 1.9687,-5.0938 0.031,-2.0714 -0.7094,-4.0211 -1.8437,-5 -0.021,-0.02 -0.042,-0.041 -0.063,-0.062 l -35.25,-33.0626 c -0.01,-0.01 -0.021,-0.021 -0.031,-0.031 -1.1159,-1.0901 -2.2918,-1.6494 -3.375,-1.75 z"
       id="path20131"
       inkscape:connector-curvature="0"
       sodipodi:nodetypes="cccccccccccccccccccccccccccccccccc" />
    <path
       sodipodi:nodetypes="ccsccc"
       inkscape:connector-curvature="0"
       id="path20133"
       d="m 292.46107,1014.9645 20.20686,-1.8039 c 0,0 -0.99272,-4.903 1.83235,-4.4764 2.82507,0.4266 1.01893,6.6916 1.01893,6.6916 l -23.1884,0.8044 z"
       style="color:#000000;display:inline;overflow:visible;visibility:visible;fill:#ff6600;fill-opacity:1;fill-rule:nonzero;stroke:none;stroke-width:2.59126377;marker:none;enable-background:accumulate" />
    <path
       inkscape:transform-center-y="-6.7306757"
       inkscape:transform-center-x="24.590278"
       transform="matrix(3.4458147e-4,0.35274636,-0.35274636,3.4458147e-4,-110.13854,1459.4714)"
       sodipodi:nodetypes="ccscccccccccc"
       inkscape:connector-curvature="0"
       id="path20135"
       d="m -1269.6991,-1208.0559 c -1.0072,0.083 -1.9322,0.2662 -2.6875,0.5312 -1.5106,0.5299 -2.2819,1.1806 -2.5,2.625 -0.2411,1.5967 0.1437,2.1992 0.9063,2.7812 0.7625,0.5821 2.1451,0.987 3.6562,1.125 3.0223,0.2762 6.375,-0.375 6.375,-0.375 0.8234,-0.163 1.7118,0.5072 1.7812,1.3438 l 3.7931,44.1749 1.1389,-0.01 -1.6194,-50.9477 c -1.2298,-0.3219 -4.1371,-1.0363 -7.6563,-1.25 -1.0938,-0.067 -2.1803,-0.083 -3.1875,0 z"
       style="color:#000000;display:inline;overflow:visible;visibility:visible;opacity:0.6857143;fill:#ff6600;fill-opacity:1;fill-rule:nonzero;stroke:none;stroke-width:2.59126377;marker:none;filter:url(#filter14511-1);enable-background:accumulate" />
    <path
       transform="matrix(0.35274653,0,0,0.35274653,757.95055,1434.7056)"
       sodipodi:nodetypes="ccccsccc"
       inkscape:connector-curvature="0"
       id="path20137"
       d="m -1306.156,-1189.687 45.2219,-4.3176 c 0,0 -1.9984,-11.6018 1.9428,-12.268 3.9413,-0.6661 4.5753,2.9001 4.5753,2.9001 0,0 -2.238,-2.5397 -4.4618,-1.4703 -2.1536,1.0356 -0.724,11.5043 -0.724,11.5043 l -46.4838,4.3657 z"
       style="color:#000000;display:inline;overflow:visible;visibility:visible;opacity:0.56734691;fill:#ff6600;fill-opacity:1;fill-rule:nonzero;stroke:none;stroke-width:1px;marker:none;filter:url(#filter14506-80-6-9);enable-background:accumulate" />
    <ellipse
       transform="matrix(-0.90525856,-0.42486108,0.42486108,-0.90525856,0,0)"
       id="path20139"
       style="color:#000000;display:inline;overflow:visible;visibility:visible;fill:#ff6600;fill-opacity:1;fill-rule:nonzero;stroke:none;stroke-width:2.59126377;marker:none;enable-background:accumulate"
       cx="-702.15576"
       cy="-787.01599"
       rx="2.0088406"
       ry="2.9415166" />
    <ellipse
       style="color:#000000;display:inline;overflow:visible;visibility:visible;fill:#ff6600;fill-opacity:1;fill-rule:nonzero;stroke:none;stroke-width:2.59126377;marker:none;enable-background:accumulate"
       id="path20141"
       transform="matrix(-0.90525856,-0.42486108,0.42486108,-0.90525856,0,0)"
       cx="-706.19354"
       cy="-782.755"
       rx="2.0088406"
       ry="2.9415166" />
    <ellipse
       style="color:#000000;display:inline;overflow:visible;visibility:visible;opacity:0.6857143;fill:#ff6600;fill-opacity:1;fill-rule:nonzero;stroke:none;stroke-width:2.99897122;marker:none;filter:url(#filter14511-9);enable-background:accumulate"
       id="path20143"
       transform="matrix(-0.27591462,-0.12949382,0.12949382,-0.27591462,194.87354,1130.8366)"
       cx="-148.45714"
       cy="505.67648"
       rx="4.8000002"
       ry="7.0285716" />
    <ellipse
       transform="matrix(-0.26611045,-0.12489247,0.12489247,-0.26611045,204.19572,1124.3458)"
       id="path20145"
       style="color:#000000;display:inline;overflow:visible;visibility:visible;opacity:0.6857143;fill:#ff6600;fill-opacity:1;fill-rule:nonzero;stroke:none;stroke-width:3.10946083;marker:none;filter:url(#filter14511-3);enable-background:accumulate"
       cx="-148.45714"
       cy="505.67648"
       rx="4.8000002"
       ry="7.0285716" />
    <path
       sodipodi:nodetypes="cccccccccccccccccccc"
       style="color:#000000;display:inline;overflow:visible;visibility:visible;fill:#ff6600;fill-opacity:1;fill-rule:nonzero;stroke:none;stroke-width:2.59126377;marker:none;enable-background:accumulate"
       d="m 271.14186,1020.2857 -19.29584,19.4126 10.51755,11.3788 9.00412,-9.5091 -6.18052,-6.3498 -4.24934,4.4336 4.08593,5.38 -0.46481,0.4618 -4.7712,-4.5794 c -0.68881,-0.6872 -0.91281,-1.4381 -0.15894,-2.3232 l 4.45143,-4.6109 c 0.69167,-0.5518 1.37068,-0.6737 2.0328,-0.2171 0,0 3.71522,2.7905 7.06705,6.6222 0.87508,1.1946 0.65873,2.2329 -0.22472,3.1756 l -8.82414,10.1333 c -1.0724,0.9355 -2.41548,0.7357 -3.41641,-0.2422 l -12.43232,-11.6538 c -1.27623,-1.1012 -1.19461,-3.6582 0.0386,-4.7678 l 19.43376,-20.321 z"
       id="path20147"
       inkscape:connector-curvature="0" />
    <path
       transform="matrix(-0.35274653,0,0,-0.35274653,-204.20761,594.91657)"
       style="color:#000000;display:inline;overflow:visible;visibility:visible;opacity:0.6857143;fill:#ff6600;fill-opacity:1;fill-rule:nonzero;stroke:none;stroke-width:2.59126377;marker:none;filter:url(#filter14511);enable-background:accumulate"
       d="m -1323.2724,-1299.9234 c -1.0643,-0.099 -2.0814,0.2102 -3.1562,1.125 -0.02,0.017 -0.042,0.014 -0.063,0.031 l -24.7812,28.5313 c -0.02,0.021 -0.041,0.042 -0.062,0.062 -1.033,1.1023 -1.5008,2.0454 -1.5937,2.9062 -0.091,0.8461 0.1372,1.7967 1.0937,3.125 0.017,0.023 0.014,0.039 0.031,0.063 9.2143,10.4941 19.3609,18.1454 19.5,18.25 0.8033,0.6802 2.5621,0.8617 3.2946,0.3254 l 12.5021,-13.4846 c 0.7731,-1.44 0.092,-2.7525 -0.7664,-3.6221 l -11.7412,-13.0598 11.8974,13.6223 c 0.6453,0.8488 -0.051,1.5235 -0.7827,2.2991 l -12.0718,12.5365 c -0.8378,0.8893 -1.5643,1.3557 -2.4188,0.4824 l -17.7267,-17.7558 c -0.815,-0.8294 -0.8295,-2.3111 -0.031,-3.1563 l 25.5312,-26.9687 c 0.8561,-0.8928 2.4733,-0.8776 3.3126,0.031 l 29.8124,32.25 c 0.7806,0.8423 0.7661,2.2983 -0.031,3.125 l -53.1562,53.4687 6.4374,6.8125 53.4376,-55.875 c 0.04,-0.043 0.082,-0.085 0.125,-0.125 1.1209,-1.0087 1.9378,-3.0223 1.9687,-5.0938 0.031,-2.0714 -0.7094,-4.0211 -1.8437,-5 -0.021,-0.02 -0.042,-0.041 -0.063,-0.062 l -35.25,-33.0626 c -0.01,-0.01 -0.021,-0.021 -0.031,-0.031 -1.1159,-1.0901 -2.2918,-1.6494 -3.375,-1.75 z"
       id="path20149"
       inkscape:connector-curvature="0"
       sodipodi:nodetypes="cccccccccccccccccccccccccccccccccc" />
    <path
       sodipodi:nodetypes="ccsccc"
       inkscape:connector-curvature="0"
       id="path20151"
       d="m 276.83272,1030.6529 1.80383,20.2069 c 0,0 4.9031,-0.9928 4.47645,1.8323 -0.42661,2.8251 -6.69159,1.019 -6.69159,1.019 l -0.80437,-23.1885 z"
       style="color:#000000;display:inline;overflow:visible;visibility:visible;fill:#ff6600;fill-opacity:1;fill-rule:nonzero;stroke:none;stroke-width:2.59126377;marker:none;enable-background:accumulate" />
    <ellipse
       transform="matrix(0.42486108,-0.90525856,0.90525856,0.42486108,0,0)"
       id="path20153"
       style="color:#000000;display:inline;overflow:visible;visibility:visible;fill:#ff6600;fill-opacity:1;fill-rule:nonzero;stroke:none;stroke-width:2.59126377;marker:none;enable-background:accumulate"
       cx="-821.57593"
       cy="696.02344"
       rx="2.0088406"
       ry="2.9415166" />
    <ellipse
       style="color:#000000;display:inline;overflow:visible;visibility:visible;fill:#ff6600;fill-opacity:1;fill-rule:nonzero;stroke:none;stroke-width:2.59126377;marker:none;enable-background:accumulate"
       id="path20155"
       transform="matrix(0.42486108,-0.90525856,0.90525856,0.42486108,0,0)"
       cx="-825.61371"
       cy="700.28442"
       rx="2.0088406"
       ry="2.9415166" />
    <ellipse
       style="color:#000000;display:inline;overflow:visible;visibility:visible;opacity:0.6857143;fill:#ff6600;fill-opacity:1;fill-rule:nonzero;stroke:none;stroke-width:2.99897122;marker:none;filter:url(#filter14511-9);enable-background:accumulate"
       id="path20157"
       transform="matrix(0.12949382,-0.27591462,0.27591462,0.12949382,160.47527,932.91427)"
       cx="-148.45714"
       cy="505.67648"
       rx="4.8000002"
       ry="7.0285716" />
    <ellipse
       transform="matrix(0.12489247,-0.26611045,0.26611045,0.12489247,166.92791,942.15244)"
       id="path20159"
       style="color:#000000;display:inline;overflow:visible;visibility:visible;opacity:0.6857143;fill:#ff6600;fill-opacity:1;fill-rule:nonzero;stroke:none;stroke-width:3.10946083;marker:none;filter:url(#filter14511-3);enable-background:accumulate"
       cx="-148.45714"
       cy="505.67648"
       rx="4.8000002"
       ry="7.0285716" />
    <path
       inkscape:connector-curvature="0"
       id="path20161"
       d="m 282.46351,1009.7034 19.29584,-19.41267 -10.51751,-11.37873 -9.00417,9.5091 6.18057,6.34975 4.2493,-4.43355 -4.08593,-5.38001 0.46481,-0.46187 4.77124,4.57951 c 0.68881,0.6871 0.91281,1.43805 0.1589,2.32317 l -4.45143,4.61086 c -0.69164,0.55181 -1.37069,0.67367 -2.0328,0.21715 0,0 -3.71518,-2.79054 -7.06701,-6.62219 -0.87508,-1.19458 -0.65877,-2.23291 0.22468,-3.17564 l 8.82414,-10.13328 c 1.07244,-0.93552 2.41552,-0.73566 3.41641,0.24216 l 12.43236,11.65376 c 1.27623,1.10128 1.19457,3.65825 -0.0386,4.76789 l -19.43375,20.32099 z"
       style="color:#000000;display:inline;overflow:visible;visibility:visible;fill:#ff6600;fill-opacity:1;fill-rule:nonzero;stroke:none;stroke-width:2.59126377;marker:none;enable-background:accumulate"
       sodipodi:nodetypes="cccccccccccccccccccc" />
    <path
       transform="matrix(0.35274653,0,0,0.35274653,757.95055,1434.7056)"
       sodipodi:nodetypes="cccccccccccccccccccccccccccccccccc"
       inkscape:connector-curvature="0"
       id="path20163"
       d="m -1323.2724,-1299.9234 c -1.0643,-0.099 -2.0814,0.2102 -3.1562,1.125 -0.02,0.017 -0.042,0.014 -0.063,0.031 l -24.7812,28.5313 c -0.02,0.021 -0.041,0.042 -0.062,0.062 -1.033,1.1023 -1.5008,2.0454 -1.5937,2.9062 -0.091,0.8461 0.1372,1.7967 1.0937,3.125 0.017,0.023 0.014,0.039 0.031,0.063 9.2143,10.4941 19.3609,18.1454 19.5,18.25 0.8033,0.6802 2.5621,0.8617 3.2946,0.3254 l 12.5021,-13.4846 c 0.7731,-1.44 0.092,-2.7525 -0.7664,-3.6221 l -11.7412,-13.0598 11.8974,13.6223 c 0.6453,0.8488 -0.051,1.5235 -0.7827,2.2991 l -12.0718,12.5365 c -0.8378,0.8893 -1.5643,1.3557 -2.4188,0.4824 l -17.7267,-17.7558 c -0.815,-0.8294 -0.8295,-2.3111 -0.031,-3.1563 l 25.5312,-26.9687 c 0.8561,-0.8928 2.4733,-0.8776 3.3126,0.031 l 29.8124,32.25 c 0.7806,0.8423 0.7661,2.2983 -0.031,3.125 l -53.1562,53.4687 6.4374,6.8125 53.4376,-55.875 c 0.04,-0.043 0.082,-0.085 0.125,-0.125 1.1209,-1.0087 1.9378,-3.0223 1.9687,-5.0938 0.031,-2.0714 -0.7094,-4.0211 -1.8437,-5 -0.021,-0.02 -0.042,-0.041 -0.063,-0.062 l -35.25,-33.0626 c -0.01,-0.01 -0.021,-0.021 -0.031,-0.031 -1.1159,-1.0901 -2.2918,-1.6494 -3.375,-1.75 z"
       style="color:#000000;display:inline;overflow:visible;visibility:visible;opacity:0.6857143;fill:#ffb44f;fill-opacity:1;fill-rule:nonzero;stroke:none;stroke-width:2.59126377;marker:none;filter:url(#filter14511);enable-background:accumulate" />
    <path
       style="color:#000000;display:inline;overflow:visible;visibility:visible;fill:#ff6600;fill-opacity:1;fill-rule:nonzero;stroke:none;stroke-width:2.59126377;marker:none;enable-background:accumulate"
       d="m 276.77265,999.33617 -1.80383,-20.20686 c 0,0 -4.90306,0.99272 -4.47641,-1.83235 0.42661,-2.82507 6.69159,-1.01893 6.69159,-1.01893 l 0.80437,23.1884 z"
       id="path20165"
       inkscape:connector-curvature="0"
       sodipodi:nodetypes="ccsccc" />
    <path
       transform="matrix(0.35274653,0,0,0.35274653,757.95055,1434.7056)"
       style="color:#000000;display:inline;overflow:visible;visibility:visible;opacity:0.6857143;fill:#ff6600;fill-opacity:1;fill-rule:nonzero;stroke:none;stroke-width:2.59126377;marker:none;filter:url(#filter14511-1);enable-background:accumulate"
       d="m -1374.9422,-1300.3744 c -1.0072,0.083 -1.9322,0.2662 -2.6875,0.5312 -1.5106,0.5299 -2.2819,1.1806 -2.5,2.625 -0.2411,1.5967 0.1437,2.1992 0.9063,2.7812 0.7625,0.5821 2.1451,0.987 3.6562,1.125 3.0223,0.2762 6.375,-0.375 6.375,-0.375 0.8234,-0.163 1.7118,0.5072 1.7812,1.3438 l 3.7931,44.1749 1.1389,-0.01 -1.6194,-50.9477 c -1.2298,-0.3219 -4.1371,-1.0363 -7.6563,-1.25 -1.0938,-0.067 -2.1803,-0.083 -3.1875,0 z"
       id="path20167"
       inkscape:connector-curvature="0"
       sodipodi:nodetypes="ccscccccccccc" />
    <ellipse
       style="color:#000000;display:inline;overflow:visible;visibility:visible;fill:#ff6600;fill-opacity:1;fill-rule:nonzero;stroke:none;stroke-width:2.59126377;marker:none;enable-background:accumulate"
       id="path20169"
       transform="matrix(-0.42486108,0.90525856,-0.90525856,-0.42486108,0,0)"
       cx="780.88373"
       cy="-667.59583"
       rx="2.0088406"
       ry="2.9415166" />
    <path
       transform="matrix(0.35274653,0,0,0.35274653,757.95055,1434.7056)"
       sodipodi:nodetypes="ccccsssc"
       inkscape:connector-curvature="0"
       id="path20171"
       d="m -1366.0757,-1296.8757 2.9879,48.4826 0.7523,0.041 -2.5177,-50.2026 c 0,0 -5.0273,-1.8468 -10.1572,-1.4364 -5.1299,0.4104 -5.1299,1.9494 -5.1299,2.2572 0,0.3078 2.9754,-0.7182 6.5663,-0.7182 3.5909,0 7.4983,1.5764 7.4983,1.5764 z"
       style="color:#000000;display:inline;overflow:visible;visibility:visible;opacity:0.56734691;fill:#ff6600;fill-opacity:1;fill-rule:nonzero;stroke:none;stroke-width:1px;marker:none;filter:url(#filter14506-80-3-8);enable-background:accumulate" />
    <ellipse
       transform="matrix(-0.42486108,0.90525856,-0.90525856,-0.42486108,0,0)"
       id="path20173"
       style="color:#000000;display:inline;overflow:visible;visibility:visible;fill:#ff6600;fill-opacity:1;fill-rule:nonzero;stroke:none;stroke-width:2.59126377;marker:none;enable-background:accumulate"
       cx="776.84595"
       cy="-663.33478"
       rx="2.0088406"
       ry="2.9415166" />
    <path
       transform="matrix(0.35274653,0,0,0.35274653,757.95055,1434.7056)"
       sodipodi:nodetypes="ccccccccccccsscczccscccccccc"
       inkscape:connector-curvature="0"
       id="path20175"
       d="m -1323.7812,-1299.625 c -0.2035,0.014 -0.9298,0.053 -1.139,0.111 -1.6737,0.4648 -2.719,1.483 -2.719,1.483 0,0 3.3668,-1.1259 5.1336,-0.1962 1.7667,0.9299 36.9813,34.4239 37.8181,35.5397 1.9299,2.6425 2.3022,5.2601 2.3022,5.2601 0,0 0.9676,-3.5887 -0.4272,-5.5414 -1.3947,-1.9527 -38.3125,-35.9062 -38.3125,-35.9062 0,0 -1.2324,-0.8479 -2.6562,-0.75 z m -5.3438,24.5625 c 0,0 11.6962,13.072 12.6259,14.8387 0.93,1.7668 -0.4793,3.3216 -0.4793,3.3216 0,0 1.5274,-1.3831 1.9022,-2.1541 0.4701,-0.9673 -0.3964,-2.2288 -0.8613,-2.6937 -0.465,-0.465 -13.1875,-13.3125 -13.1875,-13.3125 z m -20.1875,8.2813 c 0,0 -1.1539,0.8518 -1.2774,2.3766 -0.1235,1.5248 16.6211,18.5454 18.016,19.0103 1.7111,0.4649 2.4765,-1.1529 2.4765,-1.1529 0,0 -0.9301,0.3099 -1.395,0.3099 -0.4649,0 -17.0135,-16.95 -17.8504,-18.1588 -0.8369,-1.2089 0.03,-2.3851 0.03,-2.3851 z m 57.1875,7.625 -28.8125,29.4687 1.2813,2.5 c 0,0 24.5465,-27.0503 26.4062,-29.375 1.8597,-2.3246 1.125,-2.5937 1.125,-2.5937 z"
       style="color:#000000;display:inline;overflow:visible;visibility:visible;opacity:0.56734691;fill:#ff6600;fill-opacity:1;fill-rule:nonzero;stroke:none;stroke-width:1px;marker:none;filter:url(#filter14506-80-6);enable-background:accumulate" />
    <ellipse
       transform="matrix(-0.12949382,0.27591462,-0.27591462,-0.12949382,392.62569,1096.7997)"
       id="path20177"
       style="color:#000000;display:inline;overflow:visible;visibility:visible;opacity:0.6857143;fill:#ff6600;fill-opacity:1;fill-rule:nonzero;stroke:none;stroke-width:2.99897122;marker:none;filter:url(#filter14511-9);enable-background:accumulate"
       cx="-148.45714"
       cy="505.67648"
       rx="4.8000002"
       ry="7.0285716" />
    <path
       transform="matrix(0.35274653,0,0,0.35274653,757.95055,1434.7056)"
       style="color:#000000;display:inline;overflow:visible;visibility:visible;opacity:0.56734691;fill:#ff6600;fill-opacity:1;fill-rule:nonzero;stroke:none;stroke-width:1px;marker:none;filter:url(#filter14506-80-3);enable-background:accumulate"
       d="m -1382.1923,-1262.03 c 0,0 1.7414,-2.4152 4.8221,-2.2572 4.0013,0.2052 7.6948,5.5403 7.6948,5.5403 0,0 -5.0272,-3.3857 -7.4896,-3.6935 -2.4623,-0.3078 -5.0273,0.4104 -5.0273,0.4104 z"
       id="path20179"
       inkscape:connector-curvature="0"
       sodipodi:nodetypes="cscsc" />
    <ellipse
       style="color:#000000;display:inline;overflow:visible;visibility:visible;opacity:0.6857143;fill:#ff6600;fill-opacity:1;fill-rule:nonzero;stroke:none;stroke-width:3.10946083;marker:none;filter:url(#filter14511-3);enable-background:accumulate"
       id="path20181"
       transform="matrix(-0.12489247,0.26611045,-0.26611045,-0.12489247,386.17304,1087.5156)"
       cx="-148.45714"
       cy="505.67648"
       rx="4.8000002"
       ry="7.0285716" />
    <path
       transform="matrix(0.35274653,0,0,0.35274653,757.95055,1434.7056)"
       sodipodi:nodetypes="cscsc"
       inkscape:connector-curvature="0"
       id="path20183"
       d="m -1388.6559,-1277.7274 c 0,0 1.7414,-2.4152 4.8221,-2.2572 4.0013,0.2052 7.6948,5.5403 7.6948,5.5403 0,0 -5.0272,-3.3857 -7.4896,-3.6935 -2.4623,-0.3078 -5.0273,0.4104 -5.0273,0.4104 z"
       style="color:#000000;display:inline;overflow:visible;visibility:visible;opacity:0.56734691;fill:#ff6600;fill-opacity:1;fill-rule:nonzero;stroke:none;stroke-width:1px;marker:none;filter:url(#filter14506-80-3);enable-background:accumulate" />
    <path
       transform="matrix(0.35274653,0,0,0.35274653,757.95055,1434.7056)"
       inkscape:connector-curvature="0"
       id="path20185"
       d="m -1412.5395,-1158.7811 -32.5646,33.7015 c 0,0 -0.7309,1.2993 -0.8121,2.9235 -0.081,1.6242 0.3248,3.0859 0.3248,3.0859 0,0 0.8121,-4.2228 2.2739,-5.847 1.4617,-1.6241 31.9149,-32.3209 31.9149,-32.3209 z"
       style="color:#000000;display:inline;overflow:visible;visibility:visible;opacity:0.56734691;fill:#ff6600;fill-opacity:1;fill-rule:nonzero;stroke:none;stroke-width:1px;marker:none;filter:url(#filter14506-80-6-8);enable-background:accumulate" />
    <path
       transform="matrix(0.35274653,0,0,0.35274653,757.95055,1434.7056)"
       inkscape:connector-curvature="0"
       id="path20187"
       d="m -1324.5275,-1147.2279 30.4476,30.4476 c 0,0 33.4589,-29.89 34.0166,-30.8937 0.5576,-1.0038 -33.5705,33.5704 -33.5705,33.5704 l -32.2321,-32.4551 z"
       style="color:#000000;display:inline;overflow:visible;visibility:visible;opacity:0.56734691;fill:#ff6600;fill-opacity:1;fill-rule:nonzero;stroke:none;stroke-width:1px;marker:none;filter:url(#filter14506-80-6-94);enable-background:accumulate" />
    <path
       transform="matrix(0.35274653,0,0,0.35274653,757.95055,1434.7056)"
       sodipodi:nodetypes="ccczc"
       inkscape:connector-curvature="0"
       id="path20189"
       d="m -1282.4724,-1210.88 c 0,0 1.8873,-3.6637 4.8849,-3.7192 2.9976,-0.055 3.4972,3.9968 3.4972,3.9968 0,0 -1.8238,-2.4183 -3.8302,-2.4425 -2.0064,-0.024 -4.5519,2.1649 -4.5519,2.1649 z"
       style="color:#000000;display:inline;overflow:visible;visibility:visible;opacity:0.56734691;fill:#ff6600;fill-opacity:1;fill-rule:nonzero;stroke:none;stroke-width:1px;marker:none;filter:url(#filter14506-80-6-6);enable-background:accumulate" />
    <path
       transform="matrix(0.35274653,0,0,0.35274653,757.95055,1434.7056)"
       style="color:#000000;display:inline;overflow:visible;visibility:visible;opacity:0.56734691;fill:#ff6600;fill-opacity:1;fill-rule:nonzero;stroke:none;stroke-width:1px;marker:none;filter:url(#filter14506-80-6-6);enable-background:accumulate"
       d="m -1298.1265,-1204.7738 c 0,0 1.8873,-3.6637 4.8849,-3.7192 2.9976,-0.055 3.4972,3.9968 3.4972,3.9968 0,0 -2.2204,-2.5536 -3.8302,-2.4425 -1.6099,0.111 -4.5519,2.1649 -4.5519,2.1649 z"
       id="path20191"
       inkscape:connector-curvature="0" />
    <path
       transform="matrix(0.35274653,0,0,0.35274653,757.95055,1434.7056)"
       sodipodi:nodetypes="ccccszc"
       inkscape:connector-curvature="0"
       id="path20193"
       d="m -1310.3633,-1159.0501 19.5178,-19.7407 c 1.7149,-1.5693 3.5719,-1.7264 5.7995,-0.3346 l 30.2246,26.5441 c 0,0 -26.0853,-21.6601 -31.3597,-25.6338 -0.4902,-0.3692 -1.85,-0.4434 -2.8022,0.032 -0.9523,0.4758 -21.38,19.1325 -21.38,19.1325 z"
       style="color:#000000;display:inline;overflow:visible;visibility:visible;opacity:0.56734691;fill:#ff6600;fill-opacity:1;fill-rule:nonzero;stroke:none;stroke-width:1px;marker:none;filter:url(#filter14506-80-6-66);enable-background:accumulate" />
    <path
       transform="matrix(0.35274653,0,0,0.35274653,757.95055,1434.7056)"
       inkscape:connector-curvature="0"
       id="path20195"
       d="m -1307.575,-1156.0388 13.3836,12.1568 13.0489,-9.8146 c 0,0 -12.4913,11.4875 -13.0489,11.376 -0.5577,-0.1115 -13.3836,-13.7182 -13.3836,-13.7182 z"
       style="color:#000000;display:inline;overflow:visible;visibility:visible;opacity:0.56734691;fill:#ff6600;fill-opacity:1;fill-rule:nonzero;stroke:none;stroke-width:1px;marker:none;filter:url(#filter14506-80-6-67);enable-background:accumulate" />
    <path
       style="color:#000000;display:inline;overflow:visible;visibility:visible;opacity:0.6857143;fill:#ff6600;fill-opacity:1;fill-rule:nonzero;stroke:none;stroke-width:2.59126377;marker:none;filter:url(#filter14511-1);enable-background:accumulate"
       d="m -1269.6991,-1208.0559 c -1.0072,0.083 -1.9322,0.2662 -2.6875,0.5312 -1.5106,0.5299 -2.2819,1.1806 -2.5,2.625 -0.2411,1.5967 0.1437,2.1992 0.9063,2.7812 0.7625,0.5821 2.1451,0.987 3.6562,1.125 3.0223,0.2762 6.375,-0.375 6.375,-0.375 0.8234,-0.163 1.7118,0.5072 1.7812,1.3438 l 3.7931,44.1749 1.1389,-0.01 -1.6194,-50.9477 c -1.2298,-0.3219 -4.1371,-1.0363 -7.6563,-1.25 -1.0938,-0.067 -2.1803,-0.083 -3.1875,0 z"
       id="path20197"
       inkscape:connector-curvature="0"
       sodipodi:nodetypes="ccscccccccccc"
       transform="matrix(-0.35274253,-0.00167981,0.00167981,-0.35274253,-165.13024,625.4076)"
       inkscape:transform-center-x="-6.8834051"
       inkscape:transform-center-y="-24.567136" />
    <path
       transform="matrix(0.35274653,0,0,0.35274653,757.95055,1434.7056)"
       inkscape:connector-curvature="0"
       id="path20199"
       d="m -1358.6983,-1122.7245 c 0,0 0.7308,-3.0048 4.5476,-3.0048 3.8168,0 6.8216,3.8168 6.8216,3.8168 0,0 -5.6846,-2.4362 -7.7149,-2.4362 -2.0302,0 -3.6543,1.6242 -3.6543,1.6242 z"
       style="color:#000000;display:inline;overflow:visible;visibility:visible;opacity:0.56734691;fill:#ff6600;fill-opacity:1;fill-rule:nonzero;stroke:none;stroke-width:1px;marker:none;filter:url(#filter14506-80-6-61);enable-background:accumulate" />
    <path
       transform="matrix(0.35274653,0,0,0.35274653,757.95055,1434.7056)"
       style="color:#000000;display:inline;overflow:visible;visibility:visible;opacity:0.56734691;fill:#ff6600;fill-opacity:1;fill-rule:nonzero;stroke:none;stroke-width:1px;marker:none;filter:url(#filter14506-80-6-61);enable-background:accumulate"
       d="m -1352.0392,-1107.1325 c 0,0 0.7308,-3.0048 4.5476,-3.0048 3.8168,0 6.8216,3.8168 6.8216,3.8168 0,0 -5.6846,-2.4362 -7.7149,-2.4362 -2.0302,0 -3.6543,1.6242 -3.6543,1.6242 z"
       id="path20201"
       inkscape:connector-curvature="0" />
    <path
       transform="matrix(0.35274653,0,0,0.35274653,757.95055,1434.7056)"
       inkscape:connector-curvature="0"
       id="path20203"
       d="m -1363.1648,-1131.0078 3.5732,44.2586 c 0,0 3.898,-0.6497 5.847,-0.6497 1.949,0 5.9282,0.8121 6.3342,2.8423 0.4061,2.0302 -0.2436,2.3551 -0.2436,2.3551 0,0 -0.406,-4.0605 -6.9027,-3.8168 -6.4967,0.2436 -6.1718,0.2436 -6.1718,0.2436 l -3.2484,-46.0452 z"
       style="color:#000000;display:inline;overflow:visible;visibility:visible;opacity:0.56734691;fill:#ff6600;fill-opacity:1;fill-rule:nonzero;stroke:none;stroke-width:1px;marker:none;filter:url(#filter14506-80-6-4);enable-background:accumulate" />
    <path
       transform="matrix(0.35274653,0,0,0.35274653,757.95055,1434.7056)"
       inkscape:connector-curvature="0"
       id="path20205"
       d="m -1412.9456,-1121.9125 14.0491,-13.8054 c 0,0 0.9745,-0.7309 1.949,-0.7309 0.9745,0 2.1114,0.4061 2.1114,0.4061 l 19.0028,18.0282 c 0,0 1.2181,1.6242 1.4617,2.3551 0.2437,0.7309 -20.4645,-19.0028 -21.2766,-19.3276 -0.8121,-0.3249 -2.0302,-0.3249 -2.9235,0.3248 -0.8933,0.6497 -14.3739,12.7497 -14.3739,12.7497 z"
       style="color:#000000;display:inline;overflow:visible;visibility:visible;opacity:0.56734691;fill:#ff6600;fill-opacity:1;fill-rule:nonzero;stroke:none;stroke-width:1px;marker:none;filter:url(#filter14506-80-6-2);enable-background:accumulate" />
    <path
       transform="matrix(0.35274653,0,0,0.35274653,757.95055,1434.7056)"
       inkscape:connector-curvature="0"
       id="path20207"
       d="m -1409.7784,-1119.5574 11.6128,14.7799 c 0,0 -11.8565,-13.4806 -11.9377,-13.8054 -0.081,-0.3248 0.3249,-0.9745 0.3249,-0.9745 z"
       style="color:#000000;display:inline;overflow:visible;visibility:visible;opacity:0.56734691;fill:#ff6600;fill-opacity:1;fill-rule:nonzero;stroke:none;stroke-width:1px;marker:none;filter:url(#filter14506-80-6-1);enable-background:accumulate" />
    <path
       transform="matrix(0.35274653,0,0,0.35274653,757.95055,1434.7056)"
       inkscape:connector-curvature="0"
       id="path20209"
       d="m -1377.2139,-1114.1977 c 0,0 -0.812,0 -1.2181,0.2437 -0.406,0.2436 -26.0679,27.6108 -26.0679,27.6108 l -31.0216,-33.2954 0,-1.1369 c 0,0 -1.2181,1.0557 -0.4873,1.949 0.7309,0.8933 31.6713,34.1887 31.6713,34.1887 z"
       style="color:#000000;display:inline;overflow:visible;visibility:visible;opacity:0.56734691;fill:#ff6600;fill-opacity:1;fill-rule:nonzero;stroke:none;stroke-width:1px;marker:none;filter:url(#filter14506-80-6-3);enable-background:accumulate" />
    <path
       transform="matrix(0.35274653,0,0,0.35274653,757.95055,1434.7056)"
       inkscape:connector-curvature="0"
       id="path20211"
       d="m -1447.3658,-1178.3983 -4.2543,2.8108 c 0,0 1.6713,-3.0387 4.4062,-3.0387 2.7349,0 3.7225,3.4945 3.7225,3.4945 0,0 -2.279,-2.5829 -4.1783,-2.279 -1.8992,0.3038 -3.9504,1.8232 0.3039,-0.9876 z"
       style="color:#000000;display:inline;overflow:visible;visibility:visible;opacity:0.56734691;fill:#ff6600;fill-opacity:1;fill-rule:nonzero;stroke:none;stroke-width:1px;marker:none;filter:url(#filter14506-80-6-12);enable-background:accumulate" />
    <path
       transform="matrix(0.35274653,0,0,0.35274653,757.95055,1434.7056)"
       style="color:#000000;display:inline;overflow:visible;visibility:visible;opacity:0.56734691;fill:#ff6600;fill-opacity:1;fill-rule:nonzero;stroke:none;stroke-width:1px;marker:none;filter:url(#filter14506-80-6-12);enable-background:accumulate"
       d="m -1431.4882,-1184.172 -4.2543,2.8108 c 0,0 1.6713,-3.0387 4.4062,-3.0387 2.7349,0 3.7225,3.4945 3.7225,3.4945 0,0 -2.279,-2.5829 -4.1783,-2.279 -1.8992,0.3038 -3.9504,1.8232 0.3039,-0.9876 z"
       id="path20213"
       inkscape:connector-curvature="0" />
    <path
       transform="matrix(0.35274653,0,0,0.35274653,757.95055,1434.7056)"
       inkscape:connector-curvature="0"
       id="path20215"
       d="m -1449.2,-1225.014 13.0012,-13.0879 c 0,0 1.2134,-0.8667 2.1669,-0.8667 0.9534,0 2.5135,0.9534 2.5135,0.9534 0,0 13.5213,12.8278 13.7813,13.7812 0.26,0.9535 0.26,2.1669 0.26,2.1669 0,0 -0.6067,-2.1669 -3.467,-4.6804 -2.8602,-2.5136 -11.6144,-10.661 -11.6144,-10.661 0,0 -0.8667,-0.52 -1.7335,-0.3467 -0.8667,0.1733 -14.908,12.7412 -14.908,12.7412 z"
       style="color:#000000;display:inline;overflow:visible;visibility:visible;opacity:0.56734691;fill:#ff6600;fill-opacity:1;fill-rule:nonzero;stroke:none;stroke-width:1px;marker:none;filter:url(#filter14506-80-6-121);enable-background:accumulate" />
    <path
       transform="matrix(0.35274653,0,0,0.35274653,757.95055,1434.7056)"
       inkscape:connector-curvature="0"
       id="path20217"
       d="m -1466.9683,-1231.5146 c 0,0 -0.6067,0.78 -0.26,1.0401 0.3467,0.26 27.5625,26.3491 27.5625,26.3491 l 1.6468,-0.9535 c 0,0 -0.7801,1.4735 -1.3868,1.5602 -0.6067,0.087 -0.6934,0 -6.1539,-4.7671 -5.4605,-4.7671 -22.9688,-21.322 -22.6221,-22.1021 0.3467,-0.78 1.2135,-1.1267 1.2135,-1.1267 z"
       style="color:#000000;display:inline;overflow:visible;visibility:visible;opacity:0.56734691;fill:#ff6600;fill-opacity:1;fill-rule:nonzero;stroke:none;stroke-width:1px;marker:none;filter:url(#filter14506-80-6-82);enable-background:accumulate" />
    <circle
       id="path20221"
       style="color:#000000;display:inline;overflow:visible;visibility:visible;fill:#ffffff;fill-opacity:1;fill-rule:nonzero;stroke:#0055d4;stroke-width:2.39017963;stroke-opacity:1;marker:none;enable-background:accumulate"
       cx="276.95862"
       cy="1014.9778"
       r="19.484564" />
    <circle
       id="path20223"
       style="color:#000000;display:inline;overflow:visible;visibility:visible;fill:#0055d4;fill-opacity:1;fill-rule:nonzero;stroke:none;stroke-width:1;marker:none;enable-background:accumulate"
       cx="276.95859"
       cy="1014.9779"
       r="20.59271" />
    <circle
       style="color:#000000;display:inline;overflow:visible;visibility:visible;opacity:0.4820717;fill:url(#radialGradient3648);fill-opacity:1;fill-rule:nonzero;stroke:none;stroke-width:1;marker:none;enable-background:accumulate"
       id="path20225"
       cx="276.95859"
       cy="1014.9779"
       r="20.59271" />
    <circle
       id="path20227"
       style="color:#000000;display:inline;overflow:visible;visibility:visible;fill:#0000ff;fill-opacity:1;fill-rule:nonzero;stroke:none;stroke-width:1.35547781;marker:none;filter:url(#filter4645);enable-background:accumulate"
       transform="matrix(0.2297378,0,0,0.2297378,198.9868,972.80362)"
       cx="339.39481"
       cy="170.44995"
       r="68.136078" />
    <path
       transform="matrix(0.34783391,0,0,0.34783391,751.40596,1428.8504)"
       inkscape:connector-curvature="0"
       id="path20229"
       d="m -1392.4809,-1232.0483 c -0.8019,0.033 -1.509,0.2328 -2.0475,0.6749 -0.2982,2.8855 0.7189,6.5887 2.9222,8.6149 -0.1902,-0.2464 -0.4195,-0.6929 -0.7355,-1.4291 -0.9777,-1.6628 -2.7369,-9.0374 0.656,-5.4787 1.989,4.1785 2.6367,9.2781 5.7252,12.9819 2.3538,3.8651 6.8255,4.1147 10.5955,5.0816 3.2734,1.588 4.3264,6.2894 7.8522,7.2255 2.5104,3.2637 -0.6389,7.349 -2.0078,10.5006 -2.7461,4.8644 2.8883,7.8174 4.6716,11.632 3.6086,4.9811 7.031,11.5771 4.3138,17.8452 -1.6058,4.5347 -1.9956,9.5445 -3.1409,14.2721 -0.5096,3.3536 -1.2328,10.3996 2.3855,11.0564 0.7253,-3.6267 0.4384,-7.5298 3.3595,-10.2624 2.8735,-5.4672 8.4716,-8.8774 12.7226,-12.7436 1.9606,-2.3297 5.7601,-7.6173 9.5221,-10.203 1.6683,-2.8236 1.1693,-7.6219 4.2343,-10.4213 2.348,-2.4836 3.5146,-8.2489 -0.994,-8.9324 -6.0092,-2.3954 -10.9523,-6.9424 -14.9491,-12.0886 -4.3284,-2.3316 -7.0463,-2.9684 -11.6629,-4.4538 -0.281,-0.091 -0.6668,2.4248 -1.5084,2.4164 -1.1507,-0.011 0.2655,-3.2189 -2.2349,-3.1236 -0.4188,1.379 -2.8098,3.5597 -4.453,4.0295 -0.6343,-1.0347 -2.8863,-3.2068 -2.7234,-4.9624 -0.075,-3.5364 -4.592,-3.6234 -2.8626,-6.9872 -1.0331,-2.9637 -5.1833,4.3511 -6.8781,-0.6552 -1.002,-4.349 -1.1763,-11.7175 -5.1885,-12.545 -1.9336,-0.7657 -5.1682,-2.1428 -7.5739,-2.0447 z m 24.8308,12.2251 c 0.3973,0.1244 2.1717,-0.4166 4.1253,-0.3854 1.8411,0.03 4.9133,1.545 5.4703,1.0618 -0.868,-2.878 -6.9897,-2.3488 -6.8746,-2.3354 -0.9249,0.7782 -3.383,1.4105 -2.721,1.659 z m 20.154,5.4712 c -0.1529,0.27 -0.9304,0.3375 -0.9313,-0.2161 0.3055,-0.5351 0.9002,-0.076 0.9313,0.2161 z m -3.6979,-1.0674 c -3.4763,-0.1072 -1.191,-1.878 -3.0367,-1.8379 -1.2939,0.027 -0.927,1.3862 -3.1699,1.1772 2.062,0.9711 2.2009,0.732 3.6375,1.4994 2.0386,-0.1206 3.2905,-0.092 2.5691,-0.8387 z"
       style="font-size:12px;fill:#0055d4;fill-opacity:1;fill-rule:nonzero;stroke:#ff7d23;stroke-width:1.1452688;stroke-opacity:1;filter:url(#filter15293)"
       sodipodi:nodetypes="cccccccccccccccccccssccccccccscccccccsccc" />
    <path
       sodipodi:nodetypes="cccccccccccccccccccssccccccccscccccccsccc"
       style="font-size:12px;fill:#800000;fill-opacity:1;fill-rule:nonzero;stroke:#d4ff2a;stroke-width:0.39836332;stroke-opacity:1"
       d="m 267.0539,1000.3023 c -0.27894,0.012 -0.52488,0.081 -0.7122,0.2347 -0.10373,1.0037 0.25006,2.2918 1.01643,2.9966 -0.0661,-0.086 -0.14588,-0.241 -0.25583,-0.4971 -0.34008,-0.5784 -0.95197,-3.14354 0.22818,-1.9057 0.69184,1.4534 0.91715,3.2272 1.99142,4.5156 0.81876,1.3443 2.37417,1.4312 3.6855,1.7675 1.1386,0.5524 1.50486,2.1876 2.73126,2.5133 0.87317,1.1352 -0.22225,2.5562 -0.69841,3.6524 -0.95516,1.692 1.00467,2.7192 1.62496,4.0461 1.2552,1.7325 2.44563,4.0268 1.50047,6.2071 -0.55854,1.5773 -0.69414,3.3199 -1.09251,4.9643 -0.17723,1.1665 -0.42879,3.6174 0.82975,3.8458 0.25229,-1.2615 0.1525,-2.6191 1.16856,-3.5696 0.9995,-1.9017 2.9467,-3.0879 4.42534,-4.4327 0.682,-0.8103 2.00357,-2.6495 3.31211,-3.5489 0.5803,-0.9821 0.40673,-2.6512 1.47283,-3.6249 0.81673,-0.8639 1.2225,-2.8692 -0.34574,-3.107 -2.09021,-0.8332 -3.80959,-2.4148 -5.19979,-4.2048 -1.50558,-0.811 -2.45093,-1.0325 -4.05674,-1.5492 -0.0978,-0.032 -0.23196,0.8434 -0.52468,0.8405 -0.40028,0 0.0923,-1.1196 -0.77737,-1.0865 -0.14568,0.4797 -0.97734,1.2382 -1.54891,1.4016 -0.22062,-0.3599 -1.00396,-1.1154 -0.94731,-1.7261 -0.0259,-1.23 -1.59724,-1.2603 -0.99571,-2.4303 -0.35932,-1.0309 -1.80291,1.5134 -2.39241,-0.2279 -0.34853,-1.5128 -0.40916,-4.0758 -1.80475,-4.3636 -0.67255,-0.2664 -1.79769,-0.7454 -2.63445,-0.7112 z m 8.63699,4.2523 c 0.13819,0.043 0.75538,-0.1449 1.43491,-0.1341 0.64041,0.01 1.70902,0.5374 1.90278,0.3693 -0.30192,-1.001 -2.43125,-0.817 -2.39122,-0.8123 -0.32171,0.2707 -1.17672,0.4906 -0.94647,0.5771 z m 7.01024,1.903 c -0.0532,0.094 -0.32363,0.1174 -0.32395,-0.075 0.10628,-0.1861 0.31315,-0.026 0.32395,0.075 z m -1.28624,-0.3713 c -1.20919,-0.037 -0.41429,-0.6532 -1.0563,-0.6392 -0.45003,0.01 -0.32243,0.4821 -1.10259,0.4094 0.71726,0.3378 0.76558,0.2547 1.26525,0.5216 0.70908,-0.042 1.14457,-0.032 0.89364,-0.2918 z"
       id="path20231"
       inkscape:connector-curvature="0" />
    <path
       style="opacity:0.87980772;fill:#008080;fill-opacity:1;stroke:none"
       d="m 283.26398,997.17616 c 1.38037,0.72901 3.22845,1.86638 4.0439,2.60239 0.93922,0.49525 2.47324,1.77295 3.81485,2.77975 0,0 -1.85566,-2.093 -3.52524,-3.28316 -1.33678,-0.92273 -2.84495,-1.56967 -4.33351,-2.09898 z m 6.85702,3.70234 1.8022,2.2059 1.6064,1.6734 -1.32954,-1.9118 z m -3.57702,-0.98614 c -2.24956,-1.4112 -6.27972,-3.31155 -6.27972,-3.31155 0,0 1.97047,2.12722 2.71186,4.72969 0.74143,2.6024 -0.22332,4.5839 -0.22332,4.5839 0,0 2.94068,0.5392 6.51965,2.8856 3.62662,2.3775 5.6611,7.293 5.6611,7.293 0,0 0.20751,-2.7593 -0.90257,-6.6935 -1.11004,-3.9341 -2.64111,-6.0074 -2.64111,-6.0074 0,0 -2.59633,-2.0686 -4.84589,-3.47974 z m 5.71735,4.17244 c 0.80971,1.4517 1.81494,2.9926 2.13838,4.2417 0.69912,1.167 1.27858,3.1428 1.86314,5.392 0,0 -0.0761,-4.1554 -1.03375,-5.8043 -0.97938,-1.5922 -2.96777,-3.8294 -2.96777,-3.8294 z"
       id="path20233"
       inkscape:connector-curvature="0"
       sodipodi:nodetypes="cccccccccczczcsczczccccc" />
  </g>
</svg>
