<?xml version="1.0" encoding="UTF-8" standalone="no"?>
<!-- Created with Inkscape (http://www.inkscape.org/) -->

<svg
   xmlns:dc="http://purl.org/dc/elements/1.1/"
   xmlns:cc="http://creativecommons.org/ns#"
   xmlns:rdf="http://www.w3.org/1999/02/22-rdf-syntax-ns#"
   xmlns:svg="http://www.w3.org/2000/svg"
   xmlns="http://www.w3.org/2000/svg"
   xmlns:xlink="http://www.w3.org/1999/xlink"
   xmlns:sodipodi="http://sodipodi.sourceforge.net/DTD/sodipodi-0.dtd"
   xmlns:inkscape="http://www.inkscape.org/namespaces/inkscape"
   width="225.37241"
   height="224.45518"
   id="svg2"
   version="1.1"
   inkscape:version="0.91 r13725"
   sodipodi:docname="logo_flisol2015.svg"
   inkscape:export-filename="/home/ubaldino/versionados/scesi/flisol/2015/logo_flisol2015.png"
   inkscape:export-xdpi="90"
   inkscape:export-ydpi="90">
  <defs
     id="defs4">
    <linearGradient
       id="linearGradient5073">
      <stop
         id="stop5075"
         offset="0"
         style="stop-color:#ffffff;stop-opacity:1;" />
      <stop
         id="stop5077"
         offset="1"
         style="stop-color:#ffffff;stop-opacity:0;" />
    </linearGradient>
    <filter
       inkscape:collect="always"
       id="filter15293"
       style="color-interpolation-filters:sRGB">
      <feGaussianBlur
         inkscape:collect="always"
         stdDeviation="2.6999294"
         id="feGaussianBlur15295" />
    </filter>
    <filter
       height="1.3200001"
       y="-0.16"
       width="1.3200001"
       x="-0.16"
       id="filter4645"
       inkscape:collect="always"
       style="color-interpolation-filters:sRGB">
      <feGaussianBlur
         id="feGaussianBlur4647"
         stdDeviation="9.0848104"
         inkscape:collect="always" />
    </filter>
    <linearGradient
       id="linearGradient11729">
      <stop
         id="stop11731"
         offset="0"
         style="stop-color:#5bcaff;stop-opacity:1;" />
      <stop
         id="stop11733"
         offset="1"
         style="stop-color:#0071de;stop-opacity:1;" />
    </linearGradient>
    <linearGradient
       id="linearGradient11737">
      <stop
         style="stop-color:#ffffff;stop-opacity:0;"
         offset="0"
         id="stop11739" />
      <stop
         id="stop11741"
         offset="0.7044031"
         style="stop-color:#0046af;stop-opacity:0;" />
      <stop
         id="stop11743"
         offset="0.86842364"
         style="stop-color:#0044ab;stop-opacity:0.42352942;" />
      <stop
         style="stop-color:#003996;stop-opacity:0.64999998;"
         offset="0.95386213"
         id="stop11745" />
      <stop
         style="stop-color:#002c80;stop-opacity:1;"
         offset="1"
         id="stop11747" />
    </linearGradient>
    <filter
       inkscape:collect="always"
       id="filter14506-80-6-82"
       style="color-interpolation-filters:sRGB">
      <feGaussianBlur
         inkscape:collect="always"
         stdDeviation="0.70957443"
         id="feGaussianBlur14508-15-9-45" />
    </filter>
    <filter
       inkscape:collect="always"
       id="filter14506-80-6-121"
       style="color-interpolation-filters:sRGB">
      <feGaussianBlur
         inkscape:collect="always"
         stdDeviation="0.70957443"
         id="feGaussianBlur14508-15-9-4" />
    </filter>
    <filter
       inkscape:collect="always"
       id="filter14506-80-6-12"
       style="color-interpolation-filters:sRGB">
      <feGaussianBlur
         inkscape:collect="always"
         stdDeviation="0.70957443"
         id="feGaussianBlur14508-15-9-60" />
    </filter>
    <filter
       inkscape:collect="always"
       id="filter14506-80-6-3"
       style="color-interpolation-filters:sRGB">
      <feGaussianBlur
         inkscape:collect="always"
         stdDeviation="0.70957443"
         id="feGaussianBlur14508-15-9-16" />
    </filter>
    <filter
       inkscape:collect="always"
       id="filter14506-80-6-1"
       style="color-interpolation-filters:sRGB">
      <feGaussianBlur
         inkscape:collect="always"
         stdDeviation="0.70957443"
         id="feGaussianBlur14508-15-9-5" />
    </filter>
    <filter
       inkscape:collect="always"
       id="filter14506-80-6-2"
       style="color-interpolation-filters:sRGB">
      <feGaussianBlur
         inkscape:collect="always"
         stdDeviation="0.70957443"
         id="feGaussianBlur14508-15-9-3" />
    </filter>
    <filter
       inkscape:collect="always"
       id="filter14506-80-6-4"
       style="color-interpolation-filters:sRGB">
      <feGaussianBlur
         inkscape:collect="always"
         stdDeviation="0.70957443"
         id="feGaussianBlur14508-15-9-9" />
    </filter>
    <filter
       inkscape:collect="always"
       id="filter14506-80-6-61"
       style="color-interpolation-filters:sRGB">
      <feGaussianBlur
         inkscape:collect="always"
         stdDeviation="0.70957443"
         id="feGaussianBlur14508-15-9-2" />
    </filter>
    <filter
       inkscape:collect="always"
       id="filter14506-80-6-67"
       style="color-interpolation-filters:sRGB">
      <feGaussianBlur
         inkscape:collect="always"
         stdDeviation="0.70957443"
         id="feGaussianBlur14508-15-9-14" />
    </filter>
    <filter
       inkscape:collect="always"
       id="filter14506-80-6-66"
       style="color-interpolation-filters:sRGB">
      <feGaussianBlur
         inkscape:collect="always"
         stdDeviation="0.70957443"
         id="feGaussianBlur14508-15-9-6" />
    </filter>
    <filter
       inkscape:collect="always"
       id="filter14506-80-6-6"
       style="color-interpolation-filters:sRGB">
      <feGaussianBlur
         inkscape:collect="always"
         stdDeviation="0.70957443"
         id="feGaussianBlur14508-15-9-0" />
    </filter>
    <filter
       inkscape:collect="always"
       id="filter14506-80-6-94"
       style="color-interpolation-filters:sRGB">
      <feGaussianBlur
         inkscape:collect="always"
         stdDeviation="0.70957443"
         id="feGaussianBlur14508-15-9-1" />
    </filter>
    <filter
       inkscape:collect="always"
       id="filter14506-80-6-8"
       style="color-interpolation-filters:sRGB">
      <feGaussianBlur
         inkscape:collect="always"
         stdDeviation="0.70957443"
         id="feGaussianBlur14508-15-9-27" />
    </filter>
    <filter
       inkscape:collect="always"
       id="filter14506-80-3"
       style="color-interpolation-filters:sRGB">
      <feGaussianBlur
         inkscape:collect="always"
         stdDeviation="0.70957443"
         id="feGaussianBlur14508-15-7" />
    </filter>
    <filter
       inkscape:collect="always"
       id="filter14506-80-6"
       style="color-interpolation-filters:sRGB">
      <feGaussianBlur
         inkscape:collect="always"
         stdDeviation="0.70957443"
         id="feGaussianBlur14508-15-9" />
    </filter>
    <filter
       inkscape:collect="always"
       id="filter14506-80-3-8"
       style="color-interpolation-filters:sRGB">
      <feGaussianBlur
         inkscape:collect="always"
         stdDeviation="0.70957443"
         id="feGaussianBlur14508-15-7-9" />
    </filter>
    <filter
       inkscape:collect="always"
       id="filter14506-80-6-9"
       style="color-interpolation-filters:sRGB">
      <feGaussianBlur
         inkscape:collect="always"
         stdDeviation="0.70957443"
         id="feGaussianBlur14508-15-9-7" />
    </filter>
    <filter
       inkscape:collect="always"
       id="filter14511-3"
       style="color-interpolation-filters:sRGB">
      <feGaussianBlur
         inkscape:collect="always"
         stdDeviation="0.85627009"
         id="feGaussianBlur14513-8" />
    </filter>
    <filter
       inkscape:collect="always"
       id="filter14511-9"
       style="color-interpolation-filters:sRGB">
      <feGaussianBlur
         inkscape:collect="always"
         stdDeviation="0.85627009"
         id="feGaussianBlur14513-0" />
    </filter>
    <filter
       inkscape:collect="always"
       id="filter14506-80-6-946"
       style="color-interpolation-filters:sRGB">
      <feGaussianBlur
         inkscape:collect="always"
         stdDeviation="0.70957443"
         id="feGaussianBlur14508-15-9-03" />
    </filter>
    <filter
       inkscape:collect="always"
       id="filter14511-1"
       style="color-interpolation-filters:sRGB">
      <feGaussianBlur
         inkscape:collect="always"
         stdDeviation="0.85627009"
         id="feGaussianBlur14513-1" />
    </filter>
    <filter
       inkscape:collect="always"
       id="filter14506-80-6-24"
       style="color-interpolation-filters:sRGB">
      <feGaussianBlur
         inkscape:collect="always"
         stdDeviation="0.70957443"
         id="feGaussianBlur14508-15-9-58" />
    </filter>
    <filter
       inkscape:collect="always"
       id="filter14511"
       style="color-interpolation-filters:sRGB">
      <feGaussianBlur
         inkscape:collect="always"
         stdDeviation="0.85627009"
         id="feGaussianBlur14513" />
    </filter>
    <linearGradient
       x1="1611.4"
       y1="1805.7"
       gradientTransform="matrix(0.30503,0,0,-0.30503,108.46,1239.8)"
       x2="4028.6001"
       gradientUnits="userSpaceOnUse"
       y2="1794.3"
       id="linearGradient7859">
      <stop
         offset="0"
         style="stop-color:#ff983d;stop-opacity:1;"
         id="stop7739" />
      <stop
         offset="0.10874"
         style="stop-color:#ffba7c;stop-opacity:1;"
         id="stop7741" />
      <stop
         offset="0.90777999"
         style="stop-color:#ffba7c;stop-opacity:1;"
         id="stop7745" />
      <stop
         offset="1"
         style="stop-color:#ff983d;stop-opacity:1;"
         id="stop7743" />
    </linearGradient>
    <linearGradient
       x1="356.95001"
       y1="1934"
       gradientTransform="matrix(0.30503,0,0,-0.30503,108.46,1239.8)"
       x2="5287.5"
       gradientUnits="userSpaceOnUse"
       y2="1934"
       id="linearGradient7857">
      <stop
         offset="0"
         style="stop-color:#ffbd83;stop-opacity:1;"
         id="stop7725" />
      <stop
         offset="0.28687999"
         style="stop-color:#e56c00;stop-opacity:1;"
         id="stop7727" />
      <stop
         offset="0.37529999"
         style="stop-color:#8c4200;stop-opacity:1;"
         id="stop7729" />
      <stop
         offset="0.62343001"
         style="stop-color:#9c4a00;stop-opacity:1;"
         id="stop7731" />
      <stop
         offset="0.76204002"
         style="stop-color:#e56c00;stop-opacity:1;"
         id="stop7733" />
      <stop
         offset="1"
         style="stop-color:#ffbd83;stop-opacity:1;"
         id="stop7735" />
    </linearGradient>
    <radialGradient
       r="215.60001"
       gradientTransform="matrix(-3.0771,-0.20856,-0.034588,0.51031,-92.693,-360.32)"
       cx="322.73001"
       cy="259.19"
       gradientUnits="userSpaceOnUse"
       fy="255.75999"
       fx="323.38"
       id="radialGradient4010">
      <stop
         offset="0"
         stop-color="#244793"
         id="stop3936" />
      <stop
         offset="1"
         stop-color="#3d6acf"
         id="stop3938" />
    </radialGradient>
    <linearGradient
       x1="181.32001"
       y1="-43.945"
       gradientTransform="matrix(1.1448,0,0,-1.1448,-1465.7,-454.16)"
       x2="135.62"
       gradientUnits="userSpaceOnUse"
       xlink:href="#linearGradient3942"
       y2="-21.722"
       id="linearGradient3956" />
    <linearGradient
       x1="449.01001"
       y1="167.23"
       gradientTransform="matrix(1.1448,0,0,-1.1448,-1465.7,-216.45)"
       x2="513.41998"
       gradientUnits="userSpaceOnUse"
       xlink:href="#linearGradient3942"
       y2="167.23"
       id="linearGradient3948" />
    <linearGradient
       id="linearGradient3942">
      <stop
         offset="0"
         stop-color="#182f62"
         id="stop3944" />
      <stop
         offset="1"
         stop-color="#2951aa"
         id="stop3946" />
    </linearGradient>
    <radialGradient
       r="177.95"
       gradientTransform="matrix(0.7513,-2.6439e-4,0.0064698,0.031123,199.31,442.45)"
       cx="828.15997"
       cy="681.67999"
       gradientUnits="userSpaceOnUse"
       xlink:href="#linearGradient23850-5-3"
       id="radialGradient8381" />
    <radialGradient
       r="177.95"
       gradientTransform="matrix(0.7513,-2.6439e-4,0.0064698,0.031123,199.31,574.66)"
       cx="828.15997"
       cy="681.67999"
       gradientUnits="userSpaceOnUse"
       xlink:href="#linearGradient23850-5-3"
       id="radialGradient8379" />
    <radialGradient
       r="177.95"
       gradientTransform="matrix(0.99996,-5.2878e-4,0.0086111,0.062247,-6.5605,421.64)"
       cx="828.15997"
       cy="681.67999"
       gradientUnits="userSpaceOnUse"
       xlink:href="#linearGradient23850-5-3"
       id="radialGradient8377" />
    <linearGradient
       id="linearGradient23850-5-3">
      <stop
         offset="0"
         style="stop-color:#fff6cf"
         id="stop23852-4-0" />
      <stop
         offset="1"
         style="stop-color:#fff6cf;stop-opacity:0"
         id="stop23854-5-2" />
    </linearGradient>
    <radialGradient
       r="177.95"
       gradientTransform="matrix(0.99996,-0.017338,0.0086111,2.041,-6.5605,-919.65)"
       cx="828.15997"
       cy="681.67999"
       gradientUnits="userSpaceOnUse"
       xlink:href="#linearGradient23850-5-3"
       id="radialGradient8375" />
    <linearGradient
       x1="644.83002"
       y1="478.28"
       gradientTransform="matrix(2.0095,0,0,1,-649.46,0)"
       x2="827.37"
       gradientUnits="userSpaceOnUse"
       y2="478.28"
       id="linearGradient8373">
      <stop
         offset="0"
         style="stop-color:#a3a3a3"
         id="stop5855-2-6-7-5-4-8-4" />
      <stop
         offset="0"
         style="stop-color:#980101"
         id="stop5857-6-2-8-2-2-5-6" />
      <stop
         offset=".17497"
         style="stop-color:#fd3301"
         id="stop5859-5-5-5-1-4-8-2" />
      <stop
         offset=".47699"
         style="stop-color:#f39f3e"
         id="stop5861-1-8-4-9-9-5-9" />
      <stop
         offset=".76874"
         style="stop-color:#fd3301"
         id="stop5863-8-8-1-8-9-8-8" />
      <stop
         offset="1"
         style="stop-color:#980101"
         id="stop5865-0-2-5-8-4-3-9" />
    </linearGradient>
    <linearGradient
       x1="652.82001"
       y1="450.42999"
       x2="704.66998"
       gradientUnits="userSpaceOnUse"
       xlink:href="#linearGradient6387-3-3-6-2-8-4-7"
       y2="450.42999"
       id="linearGradient8371" />
    <linearGradient
       id="linearGradient8490">
      <stop
         offset="0"
         style="stop-color:#670101"
         id="stop8492" />
      <stop
         offset=".28287"
         style="stop-color:#c62400"
         id="stop8494" />
      <stop
         offset=".44252"
         style="stop-color:#de5116"
         id="stop8496" />
      <stop
         offset=".69376"
         style="stop-color:#e27f4e"
         id="stop8498" />
      <stop
         offset=".86399"
         style="stop-color:#c63200"
         id="stop8500" />
      <stop
         offset="1"
         style="stop-color:#3c0000"
         id="stop8502" />
    </linearGradient>
    <radialGradient
       r="19.094"
       gradientTransform="matrix(-2.2091,0,0,-5.452,2936.9,-2774.2)"
       cx="914.62"
       cy="-407.23999"
       gradientUnits="userSpaceOnUse"
       xlink:href="#linearGradient8490"
       fy="-414.95001"
       fx="920.78998"
       id="radialGradient8369" />
    <linearGradient
       id="linearGradient6387-3-3-6-2-8-4-7">
      <stop
         offset="0"
         style="stop-color:#980101"
         id="stop6389-0-5-8-3-6-9-2" />
      <stop
         offset=".44671"
         style="stop-color:#fb8b00"
         id="stop6391-6-5-4-3-4-0-4" />
      <stop
         offset=".81367"
         style="stop-color:#d40000"
         id="stop6393-0-4-6-3-7-7-4" />
      <stop
         offset="1"
         style="stop-color:#888888"
         id="stop6395-8-3-1-6-7-9-0" />
    </linearGradient>
    <linearGradient
       x1="624.28003"
       y1="422.98999"
       x2="649.09998"
       gradientUnits="userSpaceOnUse"
       xlink:href="#linearGradient6387-3-3-6-2-8-4-7"
       y2="422.98999"
       id="linearGradient8367" />
    <linearGradient
       id="linearGradient4989-4-0">
      <stop
         offset="0"
         style="stop-color:#980101"
         id="stop4991-0-7" />
      <stop
         offset=".20109"
         style="stop-color:#f56a0a"
         id="stop4993-1-3" />
      <stop
         offset=".39499"
         style="stop-color:#d40000"
         id="stop4995-9-7" />
      <stop
         offset="1"
         style="stop-color:#660a0a"
         id="stop4997-8-4" />
    </linearGradient>
    <radialGradient
       r="45.984001"
       gradientTransform="matrix(-1.958,0,0,-13.995,1862.1,6882.8)"
       cx="638.15002"
       cy="461.10001"
       gradientUnits="userSpaceOnUse"
       xlink:href="#linearGradient4989-4-0"
       id="radialGradient8365" />
    <filter
       x="-0.019646"
       y="-0.10001"
       width="1.0393"
       height="1.2"
       id="filter7206"
       style="color-interpolation-filters:sRGB">
      <feGaussianBlur
         stdDeviation="4.5426535"
         id="feGaussianBlur7208" />
    </filter>
    <linearGradient
       x1="356.95001"
       y1="1934"
       gradientTransform="matrix(0.30503,0,0,-0.30503,108.46,1239.8)"
       x2="5287.5"
       gradientUnits="userSpaceOnUse"
       y2="1934"
       id="linearGradient7857-1">
      <stop
         offset="0"
         style="stop-color:#ffbd83;stop-opacity:1;"
         id="stop7725-6" />
      <stop
         offset="0.28687999"
         style="stop-color:#e56c00;stop-opacity:1;"
         id="stop7727-9" />
      <stop
         offset="0.37529999"
         style="stop-color:#8c4200;stop-opacity:1;"
         id="stop7729-6" />
      <stop
         offset="0.62343001"
         style="stop-color:#9c4a00;stop-opacity:1;"
         id="stop7731-4" />
      <stop
         offset="0.76204002"
         style="stop-color:#e56c00;stop-opacity:1;"
         id="stop7733-5" />
      <stop
         offset="1"
         style="stop-color:#ffbd83;stop-opacity:1;"
         id="stop7735-2" />
    </linearGradient>
    <linearGradient
       x1="1611.4"
       y1="1805.7"
       gradientTransform="matrix(0.30503,0,0,-0.30503,108.46,1239.8)"
       x2="4028.6001"
       gradientUnits="userSpaceOnUse"
       y2="1794.3"
       id="linearGradient7859-7">
      <stop
         offset="0"
         style="stop-color:#ff983d;stop-opacity:1;"
         id="stop7739-1" />
      <stop
         offset="0.10874"
         style="stop-color:#ffba7c;stop-opacity:1;"
         id="stop7741-7" />
      <stop
         offset="0.90777999"
         style="stop-color:#ffba7c;stop-opacity:1;"
         id="stop7745-7" />
      <stop
         offset="1"
         style="stop-color:#ff983d;stop-opacity:1;"
         id="stop7743-6" />
    </linearGradient>
  </defs>
  <sodipodi:namedview
     id="base"
     pagecolor="#ffffff"
     bordercolor="#666666"
     borderopacity="1.0"
     inkscape:pageopacity="0.0"
     inkscape:pageshadow="2"
     inkscape:zoom="0.9899495"
     inkscape:cx="240.38854"
     inkscape:cy="146.16013"
     inkscape:document-units="px"
     inkscape:current-layer="layer1"
     showgrid="false"
     borderlayer="true"
     inkscape:showpageshadow="false"
     fit-margin-top="0"
     fit-margin-left="0"
     fit-margin-right="0"
     fit-margin-bottom="0"
     inkscape:snap-bbox="true"
     inkscape:bbox-nodes="true"
     inkscape:window-width="1366"
     inkscape:window-height="739"
     inkscape:window-x="0"
     inkscape:window-y="0"
     inkscape:window-maximized="1" />
  <metadata
     id="metadata7">
    <rdf:RDF>
      <cc:Work
         rdf:about="">
        <dc:format>image/svg+xml</dc:format>
        <dc:type
           rdf:resource="http://purl.org/dc/dcmitype/StillImage" />
        <dc:title></dc:title>
      </cc:Work>
    </rdf:RDF>
  </metadata>
  <g
     inkscape:label="Capa 1"
     inkscape:groupmode="layer"
     id="layer1"
     transform="translate(-229.45149,-967.64165)">
    <path
       inkscape:connector-curvature="0"
       style="color:#000000;display:inline;overflow:visible;visibility:visible;fill:#000000;fill-opacity:1;fill-rule:nonzero;stroke:#ffffff;stroke-width:1.38937998;stroke-linecap:round;stroke-linejoin:round;stroke-miterlimit:4;stroke-dasharray:none;stroke-opacity:1;marker:none;enable-background:accumulate"
       d="m 379.95171,975.81948 c -1.38588,0.0129 -2.76855,0.50474 -4.01546,1.59274 l -23.44661,26.93818 c -2.34784,2.5061 -2.92562,5.273 -0.6,8.4485 8.90773,10.1855 18.78497,17.6126 18.78497,17.6126 1.75963,1.2135 3.56202,0.8897 5.40011,-0.5771 l 11.83866,-12.2573 c 2.00356,-2.3529 1.41516,-4.3598 -0.41539,-6.1862 l -12.69253,-12.16497 -1.22311,1.22337 10.84636,14.3117 -11.28483,11.7724 -16.4311,-16.8738 23.93123,-25.27622 27.9467,30.23912 -26.97742,27.169 c -9.423,-9.5435 -22.32235,-15.6384 -36.64686,-16.2275 l -1.68468,-48.19794 c 0,0 -16.65887,-4.78593 -17.79261,2.72382 -1.13386,7.50977 11.90791,4.8706 11.90791,4.8706 l 3.64622,40.60352 c -9.87719,0.2914 -19.10664,3.1755 -27.0005,8.0329 l -30.32365,-29.0157 c -2.94896,-3.2781 -9.76582,-3.4848 -12.69254,-0.093 l -30.9698,33.0327 c -2.59866,2.6607 -3.10931,6.2439 -0.62311,9.0946 l 26.9082,23.4524 c 2.50546,2.3485 5.27165,2.9264 8.44631,0.6003 10.18301,-8.91 17.60802,-18.7895 17.60802,-18.7895 1.21327,-1.76 0.88945,-3.563 -0.57692,-5.4017 l -12.25409,-11.8416 c -2.35238,-2.0041 -4.3586,-1.3925 -6.18473,0.4386 l -12.16176,12.6727 1.22309,1.2463 14.30798,-10.872 11.76944,11.2876 -16.86954,16.4352 -25.26971,-23.9372 30.23133,-27.954 27.55437,27.4002 c -5.65881,5.6067 -10.08455,12.4532 -12.87715,20.0823 -0.30693,0.8384 -0.61044,1.6821 -0.87696,2.5392 -1.34778,4.3342 -2.15141,8.8968 -2.37694,13.6191 l -48.64709,1.6849 c 0,0 -4.80778,16.6633 2.70006,17.7974 7.50783,1.1339 4.86932,-11.9113 4.86932,-11.9113 l 41.03154,-3.6471 c 0.22377,9.805 3.00335,18.9889 7.73091,26.8692 l -29.1467,30.4928 c -3.27746,2.9494 -3.48401,9.7453 -0.0923,12.6727 l 33.02371,30.9778 c 2.66004,2.5993 6.24251,3.1331 9.09248,0.6462 l 23.44659,-26.9381 c 2.34783,-2.5059 2.92561,-5.2728 0.59999,-8.4484 -8.90773,-10.1857 -18.78496,-17.6125 -18.78496,-17.6125 -1.75963,-1.2135 -3.56192,-0.8897 -5.40011,0.5771 l -11.83868,12.2572 c -2.00344,2.3531 -1.39209,4.3597 0.43847,6.1862 l 12.66947,12.1649 1.24619,-1.2233 -10.86945,-14.2887 11.28482,-11.7955 16.43109,16.8738 -23.9312,25.2765 -27.94668,-30.2393 27.43897,-27.6307 c 9.27281,9.5729 22.00621,15.7771 36.18529,16.574 l 1.68466,48.3132 c 0,0 16.65889,4.786 17.79263,-2.724 1.13386,-7.5097 -11.90791,-4.8704 -11.90791,-4.8704 l -3.62315,-40.6496 c 0.66343,0 1.32715,0 1.98465,-0.045 9.20406,-0.4664 17.8161,-3.2214 25.26971,-7.6866 l 30.0698,28.7618 c 2.94894,3.2781 9.74274,3.4851 12.66946,0.093 l 30.9698,-33.032 c 2.59866,-2.6609 3.13238,-6.2443 0.64616,-9.095 l -26.93126,-23.4526 c -2.50535,-2.3484 -5.27164,-2.9263 -8.4463,-0.6 -10.18291,8.9099 -17.60805,18.7896 -17.60805,18.7896 -1.21323,1.7603 -0.86646,3.5628 0.60003,5.4014 l 12.231,11.8419 c 2.35228,2.004 4.35871,1.3923 6.18473,-0.4386 l 12.16176,-12.6727 -1.22309,-1.2233 -14.28489,10.849 -11.79252,-11.2876 16.86954,-16.4357 25.26971,23.9377 -30.23133,27.9536 -27.2082,-27.0305 c 9.67854,-9.3593 15.9062,-22.257 16.61568,-36.6099 l 47.83936,-1.685 c 0,0 4.78471,-16.6632 -2.72313,-17.7973 -7.50784,-1.1339 -4.86932,11.9108 -4.86932,11.9108 l -40.20075,3.6011 c -0.0106,-0.5314 -0.0194,-1.0652 -0.0462,-1.5929 -0.47732,-9.4186 -3.33688,-18.2111 -7.98478,-25.7839 l 28.61593,-29.9389 c 3.27736,-2.9497 3.50708,-9.7453 0.11527,-12.6727 l -33.0468,-30.97778 c -1.49621,-1.46209 -3.29519,-2.25474 -5.077,-2.23906 z m -56.67799,19.0668 c -2.29001,-0.015 -4.20179,0.87052 -4.9847,2.53916 -1.25271,2.66976 0.89174,6.33676 4.80007,8.17146 3.90833,1.8348 8.09364,1.1463 9.34634,-1.5235 1.25265,-2.6698 -0.91483,-6.31362 -4.82319,-8.14838 -1.46561,-0.68804 -2.96452,-1.02976 -4.33852,-1.03874 z m 5.70011,14.51932 c -2.29004,-0.015 -4.22488,0.8937 -5.00781,2.5623 -1.25265,2.6697 0.91485,6.3136 4.82319,8.1484 3.90832,1.8348 8.07057,1.1463 9.32322,-1.5234 1.25271,-2.6699 -0.89174,-6.3137 -4.80007,-8.1485 -1.46561,-0.688 -2.96455,-1.0297 -4.33853,-1.0388 z m 94.54791,46.5359 c -2.38781,-0.026 -5.06361,1.9943 -6.55398,5.1707 -1.83428,3.9091 -1.16906,8.0956 1.50005,9.3487 2.6691,1.253 6.31202,-0.9151 8.14631,-4.8243 1.83428,-3.9096 1.16907,-8.0959 -1.50004,-9.3488 -0.50045,-0.2341 -1.04129,-0.3401 -1.59234,-0.3463 z m -14.51566,5.7016 c -2.3878,-0.026 -5.08669,1.9713 -6.57702,5.1477 -1.83429,3.9091 -1.14601,8.0956 1.5231,9.3486 2.66911,1.2529 6.31202,-0.8921 8.1463,-4.8014 1.83428,-3.9094 1.16908,-8.0958 -1.50002,-9.3486 -0.50047,-0.234 -1.04131,-0.3401 -1.59236,-0.3463 z M 279.01135,1084.08 c -2.38783,-0.026 -5.0867,1.9943 -6.57707,5.1707 -1.83428,3.9093 -1.146,8.0957 1.5231,9.3488 2.66911,1.2529 6.31204,-0.8918 8.14632,-4.8014 1.83428,-3.9094 1.16909,-8.0956 -1.50002,-9.3489 -0.50046,-0.2339 -1.04131,-0.3628 -1.59233,-0.3692 z m -14.53875,5.7016 c -2.3878,-0.026 -5.0636,1.9943 -6.55398,5.1706 -1.83427,3.9093 -1.16907,8.0957 1.50004,9.3489 2.6691,1.2527 6.33509,-0.9152 8.16937,-4.8243 1.83428,-3.9096 1.14601,-8.096 -1.5231,-9.3491 -0.50044,-0.2338 -1.0413,-0.3398 -1.59233,-0.3461 z m 86.93241,49.652 c -2.29001,-0.026 -4.20179,0.8938 -4.9847,2.5624 -1.25271,2.67 0.89174,6.3135 4.80007,8.1482 3.90833,1.8351 8.09367,1.1465 9.34634,-1.5234 1.25268,-2.6697 -0.89176,-6.3137 -4.80009,-8.1482 -1.46561,-0.6882 -2.9876,-1.03 -4.36162,-1.039 z m 5.70011,14.5425 c -2.29004,-0.026 -4.22488,0.8706 -5.00781,2.5392 -1.25265,2.6698 0.91485,6.3136 4.82319,8.1484 3.90832,1.835 8.09364,1.1696 9.34635,-1.5005 1.25266,-2.6695 -0.91485,-6.3135 -4.82319,-8.1482 -1.46562,-0.6879 -2.96454,-1.0299 -4.33854,-1.0389 z"
       id="path6423" />
    <path
       inkscape:connector-curvature="0"
       id="path20109"
       d="m 328.076,1065.309 -51.59037,-51.2931 -30.23978,27.9582 25.2711,23.9355 16.87493,-16.4296 -11.78258,-11.2959 -14.29776,10.8615 -1.22735,-1.2355 12.17027,-12.6833 c 1.82613,-1.831 3.82173,-2.4264 6.17409,-0.4222 l 12.25369,11.833 c 1.46637,1.8384 1.79033,3.6435 0.5771,5.4036 0,0 -7.41606,9.8758 -17.59907,18.7858 -3.17466,2.3263 -5.93398,1.7513 -8.43948,-0.5972 l -26.9299,-23.4568 c -2.48622,-2.8506 -1.95507,-6.421 0.64356,-9.0817 l 30.97081,-33.0483 c 2.92672,-3.3925 9.72194,-3.1754 12.6709,0.1032 l 54.00459,51.6599 z"
       style="color:#000000;display:inline;overflow:visible;visibility:visible;fill:#000000;fill-opacity:1;fill-rule:nonzero;stroke:none;stroke-width:2.59126377;marker:none;enable-background:accumulate"
       sodipodi:nodetypes="cccccccccccccccccccc" />
    <path
       transform="matrix(0,-0.93768967,0.93744911,0,1457.5499,-198.65602)"
       sodipodi:nodetypes="cccccccccccccccccccccccccccccccccc"
       inkscape:connector-curvature="0"
       id="path20111"
       d="m -1323.2724,-1299.9234 c -1.0643,-0.099 -2.0814,0.2102 -3.1562,1.125 -0.02,0.017 -0.042,0.014 -0.063,0.031 l -24.7812,28.5313 c -0.02,0.021 -0.041,0.042 -0.062,0.062 -1.033,1.1023 -1.5008,2.0454 -1.5937,2.9062 -0.091,0.8461 0.1372,1.7967 1.0937,3.125 0.017,0.023 0.014,0.039 0.031,0.063 9.2143,10.4941 19.3609,18.1454 19.5,18.25 0.8033,0.6802 2.5621,0.8617 3.2946,0.3254 l 12.5021,-13.4846 c 0.7731,-1.44 0.092,-2.7525 -0.7664,-3.6221 l -11.7412,-13.0598 11.8974,13.6223 c 0.6453,0.8488 -0.051,1.5235 -0.7827,2.2991 l -12.0718,12.5365 c -0.8378,0.8893 -1.5643,1.3557 -2.4188,0.4824 l -17.7267,-17.7558 c -0.815,-0.8294 -0.8295,-2.3111 -0.031,-3.1563 l 25.5312,-26.9687 c 0.8561,-0.8928 2.4733,-0.8776 3.3126,0.031 l 29.8124,32.25 c 0.7806,0.8423 0.7661,2.2983 -0.031,3.125 l -53.1562,53.4687 6.4374,6.8125 53.4376,-55.875 c 0.04,-0.043 0.082,-0.085 0.125,-0.125 1.1209,-1.0087 1.9378,-3.0223 1.9687,-5.0938 0.031,-2.0714 -0.7094,-4.0211 -1.8437,-5 -0.021,-0.02 -0.042,-0.041 -0.063,-0.062 l -35.25,-33.0626 c -0.01,-0.01 -0.021,-0.021 -0.031,-0.031 -1.1159,-1.0901 -2.2918,-1.6494 -3.375,-1.75 z"
       style="color:#000000;display:inline;overflow:visible;visibility:visible;opacity:0.6857143;fill:#000000;fill-opacity:1;fill-rule:nonzero;stroke:none;stroke-width:2.59126377;marker:none;filter:url(#filter14511);enable-background:accumulate" />
    <path
       transform="matrix(0.93744911,0,0,0.93768967,1620.8226,2196.0552)"
       inkscape:connector-curvature="0"
       id="path20113"
       d="m -1473.2089,-1233.1614 35.1032,-37.1835 c 0,0 2.8603,-1.6468 5.3739,-1.6468 2.5135,0 4.8538,2.1669 4.8538,2.1669 l 33.4564,31.6362 -1.8202,0.5201 -34.1498,-31.8963 c 0,0 -1.6468,-1.0401 -3.727,-0.7801 -2.0802,0.2601 -3.9004,1.8202 -3.9004,1.8202 z"
       style="color:#000000;display:inline;overflow:visible;visibility:visible;opacity:0.56734691;fill:#000000;fill-opacity:1;fill-rule:nonzero;stroke:none;stroke-width:1px;marker:none;filter:url(#filter14506-80-6-24);enable-background:accumulate" />
    <path
       style="color:#000000;display:inline;overflow:visible;visibility:visible;fill:#000000;fill-opacity:1;fill-rule:nonzero;stroke:none;stroke-width:2.59126377;marker:none;enable-background:accumulate"
       d="m 300.52455,1080.4369 -53.70129,4.795 c 0,0 2.63835,13.0336 -4.86949,11.8994 -7.50783,-1.1341 -2.70798,-17.788 -2.70798,-17.788 l 61.62493,-2.1382 z"
       id="path20115"
       inkscape:connector-curvature="0"
       sodipodi:nodetypes="ccsccc" />
    <path
       style="color:#000000;display:inline;overflow:visible;visibility:visible;opacity:0.6857143;fill:#000000;fill-opacity:1;fill-rule:nonzero;stroke:none;stroke-width:2.59126377;marker:none;filter:url(#filter14511-1);enable-background:accumulate"
       d="m -1269.6991,-1208.0559 c -1.0072,0.083 -1.9322,0.2662 -2.6875,0.5312 -1.5106,0.5299 -2.2819,1.1806 -2.5,2.625 -0.2411,1.5967 0.1437,2.1992 0.9063,2.7812 0.7625,0.5821 2.1451,0.987 3.6562,1.125 3.0223,0.2762 6.375,-0.375 6.375,-0.375 0.8234,-0.163 1.7118,0.5072 1.7812,1.3438 l 3.7931,44.1749 1.1389,-0.01 -1.6194,-50.9477 c -1.2298,-0.3219 -4.1371,-1.0363 -7.6563,-1.25 -1.0938,-0.067 -2.1803,-0.083 -3.1875,0 z"
       id="path20117"
       inkscape:connector-curvature="0"
       sodipodi:nodetypes="ccscccccccccc"
       transform="matrix(-9.1574987e-4,-0.93768921,0.93744865,-9.1598485e-4,1370.4302,-101.51887)"
       inkscape:transform-center-x="-65.350447"
       inkscape:transform-center-y="17.891889" />
    <path
       transform="matrix(0.93744911,0,0,0.93768967,1620.8226,2196.0552)"
       inkscape:connector-curvature="0"
       id="path20119"
       d="m -1420.4928,-1191.5216 c 0,0 -51.7161,1.3282 -52.0482,1.4942 -0.332,0.166 -1.3282,5.4787 -1.3282,6.5579 0,1.0791 0.3321,3.4865 0.3321,3.4865 0,0 1.2452,-8.3012 1.9093,-8.6332 0.664,-0.3321 51.135,-1.9923 51.135,-1.9923 z"
       style="color:#000000;display:inline;overflow:visible;visibility:visible;opacity:0.56734691;fill:#000000;fill-opacity:1;fill-rule:nonzero;stroke:none;stroke-width:1px;marker:none;filter:url(#filter14506-80-6-946);enable-background:accumulate" />
    <ellipse
       style="color:#000000;display:inline;overflow:visible;visibility:visible;fill:#000000;fill-opacity:1;fill-rule:nonzero;stroke:none;stroke-width:2.59126377;marker:none;enable-background:accumulate"
       id="path20121"
       transform="matrix(0.90521663,0.42495041,-0.42477176,0.90530048,0,0)"
       cx="714.56873"
       cy="870.34772"
       rx="5.3388848"
       ry="7.8189349" />
    <ellipse
       transform="matrix(0.90521663,0.42495041,-0.42477176,0.90530048,0,0)"
       id="path20123"
       style="color:#000000;display:inline;overflow:visible;visibility:visible;fill:#000000;fill-opacity:1;fill-rule:nonzero;stroke:none;stroke-width:2.59126377;marker:none;enable-background:accumulate"
       cx="703.83771"
       cy="881.67407"
       rx="5.3388848"
       ry="7.8189349" />
    <ellipse
       transform="matrix(0.73326282,0.34422739,-0.34413908,0.73345097,560.32424,770.68916)"
       id="path20125"
       style="color:#000000;display:inline;overflow:visible;visibility:visible;opacity:0.6857143;fill:#000000;fill-opacity:1;fill-rule:nonzero;stroke:none;stroke-width:2.99897122;marker:none;filter:url(#filter14511-9);enable-background:accumulate"
       cx="-148.45714"
       cy="505.67648"
       rx="4.8000002"
       ry="7.0285716" />
    <ellipse
       style="color:#000000;display:inline;overflow:visible;visibility:visible;opacity:0.6857143;fill:#000000;fill-opacity:1;fill-rule:nonzero;stroke:none;stroke-width:3.10946083;marker:none;filter:url(#filter14511-3);enable-background:accumulate"
       id="path20127"
       transform="matrix(0.70720754,0.33199584,-0.33191067,0.70738901,535.43754,787.41456)"
       cx="-148.45714"
       cy="505.67648"
       rx="4.8000002"
       ry="7.0285716" />
    <path
       sodipodi:nodetypes="cccccccccccccccccccc"
       style="color:#000000;display:inline;overflow:visible;visibility:visible;fill:#000000;fill-opacity:1;fill-rule:nonzero;stroke:none;stroke-width:2.59126377;marker:none;enable-background:accumulate"
       d="m 356.19941,1095.4049 51.59048,51.2931 30.23979,-27.9581 -25.2711,-23.9355 -16.87493,16.4296 11.78248,11.2959 14.29777,-10.8616 1.22745,1.2355 -12.17037,12.6833 c -1.82603,1.8309 -3.82172,2.4265 -6.174,0.4223 l -12.25368,-11.8328 c -1.46647,-1.8388 -1.79034,-3.6438 -0.57711,-5.4039 0,0 7.41608,-9.8758 17.59895,-18.7859 3.17469,-2.326 5.93413,-1.7511 8.43949,0.5974 l 26.92993,23.4567 c 2.4862,2.8506 1.95506,6.421 -0.64357,9.0817 l -30.9708,33.0482 c -2.92673,3.3928 -9.72195,3.1755 -12.6709,-0.1032 l -54.00459,-51.6598 z"
       id="path20129"
       inkscape:connector-curvature="0" />
    <path
       transform="matrix(0,0.93768967,-0.93744911,0,-773.27451,2359.37)"
       style="color:#000000;display:inline;overflow:visible;visibility:visible;opacity:0.6857143;fill:#000000;fill-opacity:1;fill-rule:nonzero;stroke:none;stroke-width:2.59126377;marker:none;filter:url(#filter14511);enable-background:accumulate"
       d="m -1323.2724,-1299.9234 c -1.0643,-0.099 -2.0814,0.2102 -3.1562,1.125 -0.02,0.017 -0.042,0.014 -0.063,0.031 l -24.7812,28.5313 c -0.02,0.021 -0.041,0.042 -0.062,0.062 -1.033,1.1023 -1.5008,2.0454 -1.5937,2.9062 -0.091,0.8461 0.1372,1.7967 1.0937,3.125 0.017,0.023 0.014,0.039 0.031,0.063 9.2143,10.4941 19.3609,18.1454 19.5,18.25 0.8033,0.6802 2.5621,0.8617 3.2946,0.3254 l 12.5021,-13.4846 c 0.7731,-1.44 0.092,-2.7525 -0.7664,-3.6221 l -11.7412,-13.0598 11.8974,13.6223 c 0.6453,0.8488 -0.051,1.5235 -0.7827,2.2991 l -12.0718,12.5365 c -0.8378,0.8893 -1.5643,1.3557 -2.4188,0.4824 l -17.7267,-17.7558 c -0.815,-0.8294 -0.8295,-2.3111 -0.031,-3.1563 l 25.5312,-26.9687 c 0.8561,-0.8928 2.4733,-0.8776 3.3126,0.031 l 29.8124,32.25 c 0.7806,0.8423 0.7661,2.2983 -0.031,3.125 l -53.1562,53.4687 6.4374,6.8125 53.4376,-55.875 c 0.04,-0.043 0.082,-0.085 0.125,-0.125 1.1209,-1.0087 1.9378,-3.0223 1.9687,-5.0938 0.031,-2.0714 -0.7094,-4.0211 -1.8437,-5 -0.021,-0.02 -0.042,-0.041 -0.063,-0.062 l -35.25,-33.0626 c -0.01,-0.01 -0.021,-0.021 -0.031,-0.031 -1.1159,-1.0901 -2.2918,-1.6494 -3.375,-1.75 z"
       id="path20131"
       inkscape:connector-curvature="0"
       sodipodi:nodetypes="cccccccccccccccccccccccccccccccccc" />
    <path
       sodipodi:nodetypes="ccsccc"
       inkscape:connector-curvature="0"
       id="path20133"
       d="m 383.75099,1080.277 53.70117,-4.7951 c 0,0 -2.63821,-13.0334 4.86961,-11.8994 7.50783,1.134 2.70789,17.7879 2.70789,17.7879 l -61.62483,2.1384 z"
       style="color:#000000;display:inline;overflow:visible;visibility:visible;fill:#000000;fill-opacity:1;fill-rule:nonzero;stroke:none;stroke-width:2.59126377;marker:none;enable-background:accumulate" />
    <path
       inkscape:transform-center-y="-17.891836"
       inkscape:transform-center-x="65.350422"
       transform="matrix(9.1574987e-4,0.93768921,-0.93744865,9.1598485e-4,-686.18623,2261.8891)"
       sodipodi:nodetypes="ccscccccccccc"
       inkscape:connector-curvature="0"
       id="path20135"
       d="m -1269.6991,-1208.0559 c -1.0072,0.083 -1.9322,0.2662 -2.6875,0.5312 -1.5106,0.5299 -2.2819,1.1806 -2.5,2.625 -0.2411,1.5967 0.1437,2.1992 0.9063,2.7812 0.7625,0.5821 2.1451,0.987 3.6562,1.125 3.0223,0.2762 6.375,-0.375 6.375,-0.375 0.8234,-0.163 1.7118,0.5072 1.7812,1.3438 l 3.7931,44.1749 1.1389,-0.01 -1.6194,-50.9477 c -1.2298,-0.3219 -4.1371,-1.0363 -7.6563,-1.25 -1.0938,-0.067 -2.1803,-0.083 -3.1875,0 z"
       style="color:#000000;display:inline;overflow:visible;visibility:visible;opacity:0.6857143;fill:#000000;fill-opacity:1;fill-rule:nonzero;stroke:none;stroke-width:2.59126377;marker:none;filter:url(#filter14511-1);enable-background:accumulate" />
    <path
       transform="matrix(0.93744911,0,0,0.93768967,1620.8226,2196.0552)"
       sodipodi:nodetypes="ccccsccc"
       inkscape:connector-curvature="0"
       id="path20137"
       d="m -1306.156,-1189.687 45.2219,-4.3176 c 0,0 -1.9984,-11.6018 1.9428,-12.268 3.9413,-0.6661 4.5753,2.9001 4.5753,2.9001 0,0 -2.238,-2.5397 -4.4618,-1.4703 -2.1536,1.0356 -0.724,11.5043 -0.724,11.5043 l -46.4838,4.3657 z"
       style="color:#000000;display:inline;overflow:visible;visibility:visible;opacity:0.56734691;fill:#000000;fill-opacity:1;fill-rule:nonzero;stroke:none;stroke-width:1px;marker:none;filter:url(#filter14506-80-6-9);enable-background:accumulate" />
    <ellipse
       transform="matrix(-0.90521663,-0.42495041,0.42477176,-0.90530048,0,0)"
       id="path20139"
       style="color:#000000;display:inline;overflow:visible;visibility:visible;fill:#000000;fill-opacity:1;fill-rule:nonzero;stroke:none;stroke-width:2.59126377;marker:none;enable-background:accumulate"
       cx="-822.71625"
       cy="-794.78333"
       rx="5.3388848"
       ry="7.8189349" />
    <ellipse
       style="color:#000000;display:inline;overflow:visible;visibility:visible;fill:#000000;fill-opacity:1;fill-rule:nonzero;stroke:none;stroke-width:2.59126377;marker:none;enable-background:accumulate"
       id="path20141"
       transform="matrix(-0.90521663,-0.42495041,0.42477176,-0.90530048,0,0)"
       cx="-833.44739"
       cy="-783.45703"
       rx="5.3388848"
       ry="7.8189349" />
    <ellipse
       style="color:#000000;display:inline;overflow:visible;visibility:visible;opacity:0.6857143;fill:#000000;fill-opacity:1;fill-rule:nonzero;stroke:none;stroke-width:2.99897122;marker:none;filter:url(#filter14511-9);enable-background:accumulate"
       id="path20143"
       transform="matrix(-0.73326282,-0.34422739,0.34413908,-0.73345097,124.40517,1388.2945)"
       cx="-148.45714"
       cy="505.67648"
       rx="4.8000002"
       ry="7.0285716" />
    <ellipse
       transform="matrix(-0.70720754,-0.33199584,0.33191067,-0.70738901,149.17952,1371.0403)"
       id="path20145"
       style="color:#000000;display:inline;overflow:visible;visibility:visible;opacity:0.6857143;fill:#000000;fill-opacity:1;fill-rule:nonzero;stroke:none;stroke-width:3.10946083;marker:none;filter:url(#filter14511-3);enable-background:accumulate"
       cx="-148.45714"
       cy="505.67648"
       rx="4.8000002"
       ry="7.0285716" />
    <path
       sodipodi:nodetypes="cccccccccccccccccccc"
       style="color:#000000;display:inline;overflow:visible;visibility:visible;fill:#000000;fill-opacity:1;fill-rule:nonzero;stroke:none;stroke-width:2.59126377;marker:none;enable-background:accumulate"
       d="m 327.09367,1094.4223 -51.28007,51.6035 27.95114,30.2478 23.92911,-25.2776 -16.4252,-16.8793 -11.29292,11.7855 10.85866,14.3013 -1.23528,1.2277 -12.67979,-12.1731 c -1.83058,-1.8268 -2.42587,-3.8228 -0.42239,-6.1757 l 11.82999,-12.257 c 1.83815,-1.4668 3.64268,-1.7908 5.4023,-0.5772 0,0 9.87348,7.4179 18.78118,17.6036 2.3256,3.1755 1.75064,5.9356 -0.5972,8.4415 l -23.45077,26.9369 c -2.85,2.4868 -6.41933,1.9556 -9.07937,-0.6439 l -33.03977,-30.9786 c -3.39169,-2.9274 -3.17475,-9.7246 0.10261,-12.674 l 51.64661,-54.0184 z"
       id="path20147"
       inkscape:connector-curvature="0" />
    <path
       transform="matrix(-0.93744911,0,0,-0.93768967,-936.18151,-36.316723)"
       style="color:#000000;display:inline;overflow:visible;visibility:visible;opacity:0.6857143;fill:#000000;fill-opacity:1;fill-rule:nonzero;stroke:none;stroke-width:2.59126377;marker:none;filter:url(#filter14511);enable-background:accumulate"
       d="m -1323.2724,-1299.9234 c -1.0643,-0.099 -2.0814,0.2102 -3.1562,1.125 -0.02,0.017 -0.042,0.014 -0.063,0.031 l -24.7812,28.5313 c -0.02,0.021 -0.041,0.042 -0.062,0.062 -1.033,1.1023 -1.5008,2.0454 -1.5937,2.9062 -0.091,0.8461 0.1372,1.7967 1.0937,3.125 0.017,0.023 0.014,0.039 0.031,0.063 9.2143,10.4941 19.3609,18.1454 19.5,18.25 0.8033,0.6802 2.5621,0.8617 3.2946,0.3254 l 12.5021,-13.4846 c 0.7731,-1.44 0.092,-2.7525 -0.7664,-3.6221 l -11.7412,-13.0598 11.8974,13.6223 c 0.6453,0.8488 -0.051,1.5235 -0.7827,2.2991 l -12.0718,12.5365 c -0.8378,0.8893 -1.5643,1.3557 -2.4188,0.4824 l -17.7267,-17.7558 c -0.815,-0.8294 -0.8295,-2.3111 -0.031,-3.1563 l 25.5312,-26.9687 c 0.8561,-0.8928 2.4733,-0.8776 3.3126,0.031 l 29.8124,32.25 c 0.7806,0.8423 0.7661,2.2983 -0.031,3.125 l -53.1562,53.4687 6.4374,6.8125 53.4376,-55.875 c 0.04,-0.043 0.082,-0.085 0.125,-0.125 1.1209,-1.0087 1.9378,-3.0223 1.9687,-5.0938 0.031,-2.0714 -0.7094,-4.0211 -1.8437,-5 -0.021,-0.02 -0.042,-0.041 -0.063,-0.062 l -35.25,-33.0626 c -0.01,-0.01 -0.021,-0.021 -0.031,-0.031 -1.1159,-1.0901 -2.2918,-1.6494 -3.375,-1.75 z"
       id="path20149"
       inkscape:connector-curvature="0"
       sodipodi:nodetypes="cccccccccccccccccccccccccccccccccc" />
    <path
       sodipodi:nodetypes="ccsccc"
       inkscape:connector-curvature="0"
       id="path20151"
       d="m 342.21753,1121.9809 4.79383,53.7151 c 0,0 13.03031,-2.6392 11.89647,4.8707 -1.13376,7.5098 -17.78338,2.7088 -17.78338,2.7088 l -2.13767,-61.6409 z"
       style="color:#000000;display:inline;overflow:visible;visibility:visible;fill:#000000;fill-opacity:1;fill-rule:nonzero;stroke:none;stroke-width:2.59126377;marker:none;enable-background:accumulate" />
    <ellipse
       transform="matrix(0.42477176,-0.90530048,0.90521663,0.42495041,0,0)"
       id="path20153"
       style="color:#000000;display:inline;overflow:visible;visibility:visible;fill:#000000;fill-opacity:1;fill-rule:nonzero;stroke:none;stroke-width:2.59126377;marker:none;enable-background:accumulate"
       cx="-886.64825"
       cy="806.4184"
       rx="5.3397603"
       ry="7.8176532" />
    <ellipse
       style="color:#000000;display:inline;overflow:visible;visibility:visible;fill:#000000;fill-opacity:1;fill-rule:nonzero;stroke:none;stroke-width:2.59126377;marker:none;enable-background:accumulate"
       id="path20155"
       transform="matrix(0.42477176,-0.90530048,0.90521663,0.42495041,0,0)"
       cx="-897.38116"
       cy="817.74286"
       rx="5.3397603"
       ry="7.8176532" />
    <ellipse
       style="color:#000000;display:inline;overflow:visible;visibility:visible;opacity:0.6857143;fill:#000000;fill-opacity:1;fill-rule:nonzero;stroke:none;stroke-width:2.99897122;marker:none;filter:url(#filter14511-9);enable-background:accumulate"
       id="path20157"
       transform="matrix(0.34413908,-0.73345097,0.73326282,0.34422739,32.9893,862.16682)"
       cx="-148.45714"
       cy="505.67648"
       rx="4.8000002"
       ry="7.0285716" />
    <ellipse
       transform="matrix(0.33191067,-0.70738901,0.70720754,0.33199584,50.137649,886.7242)"
       id="path20159"
       style="color:#000000;display:inline;overflow:visible;visibility:visible;opacity:0.6857143;fill:#000000;fill-opacity:1;fill-rule:nonzero;stroke:none;stroke-width:3.10946083;marker:none;filter:url(#filter14511-3);enable-background:accumulate"
       cx="-148.45714"
       cy="505.67648"
       rx="4.8000002"
       ry="7.0285716" />
    <path
       inkscape:connector-curvature="0"
       id="path20161"
       d="m 357.18177,1066.2917 51.28007,-51.6037 -27.95102,-30.24757 -23.92924,25.27757 16.4253,16.8792 11.29283,-11.7854 -10.85866,-14.3015 1.23525,-1.22773 12.67994,12.17353 c 1.83055,1.8264 2.42584,3.8227 0.42228,6.1755 l -11.82999,12.257 c -1.83809,1.4668 -3.6427,1.7908 -5.40231,0.5771 0,0 -9.87336,-7.4179 -18.78109,-17.6035 -2.32558,-3.1755 -1.75072,-5.9356 0.59709,-8.4416 l 23.45079,-26.9368 c 2.85008,-2.48685 6.41941,-1.95558 9.07936,0.64371 l 33.03988,30.97859 c 3.39167,2.9275 3.17466,9.7246 -0.1026,12.6744 l -51.64658,54.0183 z"
       style="color:#000000;display:inline;overflow:visible;visibility:visible;fill:#000000;fill-opacity:1;fill-rule:nonzero;stroke:none;stroke-width:2.59126377;marker:none;enable-background:accumulate"
       sodipodi:nodetypes="cccccccccccccccccccc" />
    <path
       transform="matrix(0.93744911,0,0,0.93768967,1620.8226,2196.0552)"
       sodipodi:nodetypes="cccccccccccccccccccccccccccccccccc"
       inkscape:connector-curvature="0"
       id="path20163"
       d="m -1323.2724,-1299.9234 c -1.0643,-0.099 -2.0814,0.2102 -3.1562,1.125 -0.02,0.017 -0.042,0.014 -0.063,0.031 l -24.7812,28.5313 c -0.02,0.021 -0.041,0.042 -0.062,0.062 -1.033,1.1023 -1.5008,2.0454 -1.5937,2.9062 -0.091,0.8461 0.1372,1.7967 1.0937,3.125 0.017,0.023 0.014,0.039 0.031,0.063 9.2143,10.4941 19.3609,18.1454 19.5,18.25 0.8033,0.6802 2.5621,0.8617 3.2946,0.3254 l 12.5021,-13.4846 c 0.7731,-1.44 0.092,-2.7525 -0.7664,-3.6221 l -11.7412,-13.0598 11.8974,13.6223 c 0.6453,0.8488 -0.051,1.5235 -0.7827,2.2991 l -12.0718,12.5365 c -0.8378,0.8893 -1.5643,1.3557 -2.4188,0.4824 l -17.7267,-17.7558 c -0.815,-0.8294 -0.8295,-2.3111 -0.031,-3.1563 l 25.5312,-26.9687 c 0.8561,-0.8928 2.4733,-0.8776 3.3126,0.031 l 29.8124,32.25 c 0.7806,0.8423 0.7661,2.2983 -0.031,3.125 l -53.1562,53.4687 6.4374,6.8125 53.4376,-55.875 c 0.04,-0.043 0.082,-0.085 0.125,-0.125 1.1209,-1.0087 1.9378,-3.0223 1.9687,-5.0938 0.031,-2.0714 -0.7094,-4.0211 -1.8437,-5 -0.021,-0.02 -0.042,-0.041 -0.063,-0.062 l -35.25,-33.0626 c -0.01,-0.01 -0.021,-0.021 -0.031,-0.031 -1.1159,-1.0901 -2.2918,-1.6494 -3.375,-1.75 z"
       style="color:#000000;display:inline;overflow:visible;visibility:visible;opacity:0.6857143;fill:#000000;fill-opacity:1;fill-rule:nonzero;stroke:none;stroke-width:2.59126377;marker:none;filter:url(#filter14511);enable-background:accumulate" />
    <path
       style="color:#000000;display:inline;overflow:visible;visibility:visible;fill:#000000;fill-opacity:1;fill-rule:nonzero;stroke:none;stroke-width:2.59126377;marker:none;enable-background:accumulate"
       d="m 342.05791,1038.7331 -4.79381,-53.715 c 0,0 -13.03025,2.63889 -11.89639,-4.87084 1.13374,-7.50977 17.78337,-2.70859 17.78337,-2.70859 l 2.13767,61.64073 z"
       id="path20165"
       inkscape:connector-curvature="0"
       sodipodi:nodetypes="ccsccc" />
    <path
       transform="matrix(0.93744911,0,0,0.93768967,1620.8226,2196.0552)"
       style="color:#000000;display:inline;overflow:visible;visibility:visible;opacity:0.6857143;fill:#000000;fill-opacity:1;fill-rule:nonzero;stroke:none;stroke-width:2.59126377;marker:none;filter:url(#filter14511-1);enable-background:accumulate"
       d="m -1374.9422,-1300.3744 c -1.0072,0.083 -1.9322,0.2662 -2.6875,0.5312 -1.5106,0.5299 -2.2819,1.1806 -2.5,2.625 -0.2411,1.5967 0.1437,2.1992 0.9063,2.7812 0.7625,0.5821 2.1451,0.987 3.6562,1.125 3.0223,0.2762 6.375,-0.375 6.375,-0.375 0.8234,-0.163 1.7118,0.5072 1.7812,1.3438 l 3.7931,44.1749 1.1389,-0.01 -1.6194,-50.9477 c -1.2298,-0.3219 -4.1371,-1.0363 -7.6563,-1.25 -1.0938,-0.067 -2.1803,-0.083 -3.1875,0 z"
       id="path20167"
       inkscape:connector-curvature="0"
       sodipodi:nodetypes="ccscccccccccc" />
    <ellipse
       style="color:#000000;display:inline;overflow:visible;visibility:visible;fill:#000000;fill-opacity:1;fill-rule:nonzero;stroke:none;stroke-width:2.59126377;marker:none;enable-background:accumulate"
       id="path20169"
       transform="matrix(-0.42477176,0.90530048,-0.90521663,-0.42495041,0,0)"
       cx="778.48297"
       cy="-730.86652"
       rx="5.3397603"
       ry="7.8176532" />
    <path
       transform="matrix(0.93744911,0,0,0.93768967,1620.8226,2196.0552)"
       sodipodi:nodetypes="ccccsssc"
       inkscape:connector-curvature="0"
       id="path20171"
       d="m -1366.0757,-1296.8757 2.9879,48.4826 0.7523,0.041 -2.5177,-50.2026 c 0,0 -5.0273,-1.8468 -10.1572,-1.4364 -5.1299,0.4104 -5.1299,1.9494 -5.1299,2.2572 0,0.3078 2.9754,-0.7182 6.5663,-0.7182 3.5909,0 7.4983,1.5764 7.4983,1.5764 z"
       style="color:#000000;display:inline;overflow:visible;visibility:visible;opacity:0.56734691;fill:#000000;fill-opacity:1;fill-rule:nonzero;stroke:none;stroke-width:1px;marker:none;filter:url(#filter14506-80-3-8);enable-background:accumulate" />
    <ellipse
       transform="matrix(-0.42477176,0.90530048,-0.90521663,-0.42495041,0,0)"
       id="path20173"
       style="color:#000000;display:inline;overflow:visible;visibility:visible;fill:#000000;fill-opacity:1;fill-rule:nonzero;stroke:none;stroke-width:2.59126377;marker:none;enable-background:accumulate"
       cx="767.75006"
       cy="-719.54193"
       rx="5.3397603"
       ry="7.8176532" />
    <path
       transform="matrix(0.93744911,0,0,0.93768967,1620.8226,2196.0552)"
       sodipodi:nodetypes="ccccccccccccsscczccscccccccc"
       inkscape:connector-curvature="0"
       id="path20175"
       d="m -1323.7812,-1299.625 c -0.2035,0.014 -0.9298,0.053 -1.139,0.111 -1.6737,0.4648 -2.719,1.483 -2.719,1.483 0,0 3.3668,-1.1259 5.1336,-0.1962 1.7667,0.9299 36.9813,34.4239 37.8181,35.5397 1.9299,2.6425 2.3022,5.2601 2.3022,5.2601 0,0 0.9676,-3.5887 -0.4272,-5.5414 -1.3947,-1.9527 -38.3125,-35.9062 -38.3125,-35.9062 0,0 -1.2324,-0.8479 -2.6562,-0.75 z m -5.3438,24.5625 c 0,0 11.6962,13.072 12.6259,14.8387 0.93,1.7668 -0.4793,3.3216 -0.4793,3.3216 0,0 1.5274,-1.3831 1.9022,-2.1541 0.4701,-0.9673 -0.3964,-2.2288 -0.8613,-2.6937 -0.465,-0.465 -13.1875,-13.3125 -13.1875,-13.3125 z m -20.1875,8.2813 c 0,0 -1.1539,0.8518 -1.2774,2.3766 -0.1235,1.5248 16.6211,18.5454 18.016,19.0103 1.7111,0.4649 2.4765,-1.1529 2.4765,-1.1529 0,0 -0.9301,0.3099 -1.395,0.3099 -0.4649,0 -17.0135,-16.95 -17.8504,-18.1588 -0.8369,-1.2089 0.03,-2.3851 0.03,-2.3851 z m 57.1875,7.625 -28.8125,29.4687 1.2813,2.5 c 0,0 24.5465,-27.0503 26.4062,-29.375 1.8597,-2.3246 1.125,-2.5937 1.125,-2.5937 z"
       style="color:#000000;display:inline;overflow:visible;visibility:visible;opacity:0.56734691;fill:#000000;fill-opacity:1;fill-rule:nonzero;stroke:none;stroke-width:1px;marker:none;filter:url(#filter14506-80-6);enable-background:accumulate" />
    <ellipse
       transform="matrix(-0.34413908,0.73345097,-0.73326282,-0.34422739,649.94563,1297.8159)"
       id="path20177"
       style="color:#000000;display:inline;overflow:visible;visibility:visible;opacity:0.6857143;fill:#000000;fill-opacity:1;fill-rule:nonzero;stroke:none;stroke-width:2.99897122;marker:none;filter:url(#filter14511-9);enable-background:accumulate"
       cx="-148.45714"
       cy="505.67648"
       rx="4.8000002"
       ry="7.0285716" />
    <path
       transform="matrix(0.93744911,0,0,0.93768967,1620.8226,2196.0552)"
       style="color:#000000;display:inline;overflow:visible;visibility:visible;opacity:0.56734691;fill:#000000;fill-opacity:1;fill-rule:nonzero;stroke:none;stroke-width:1px;marker:none;filter:url(#filter14506-80-3);enable-background:accumulate"
       d="m -1382.1923,-1262.03 c 0,0 1.7414,-2.4152 4.8221,-2.2572 4.0013,0.2052 7.6948,5.5403 7.6948,5.5403 0,0 -5.0272,-3.3857 -7.4896,-3.6935 -2.4623,-0.3078 -5.0273,0.4104 -5.0273,0.4104 z"
       id="path20179"
       inkscape:connector-curvature="0"
       sodipodi:nodetypes="cscsc" />
    <ellipse
       style="color:#000000;display:inline;overflow:visible;visibility:visible;opacity:0.6857143;fill:#000000;fill-opacity:1;fill-rule:nonzero;stroke:none;stroke-width:3.10946083;marker:none;filter:url(#filter14511-3);enable-background:accumulate"
       id="path20181"
       transform="matrix(-0.33191067,0.70738901,-0.70720754,-0.33199584,632.79725,1273.1363)"
       cx="-148.45714"
       cy="505.67648"
       rx="4.8000002"
       ry="7.0285716" />
    <path
       transform="matrix(0.93744911,0,0,0.93768967,1620.8226,2196.0552)"
       sodipodi:nodetypes="cscsc"
       inkscape:connector-curvature="0"
       id="path20183"
       d="m -1388.6559,-1277.7274 c 0,0 1.7414,-2.4152 4.8221,-2.2572 4.0013,0.2052 7.6948,5.5403 7.6948,5.5403 0,0 -5.0272,-3.3857 -7.4896,-3.6935 -2.4623,-0.3078 -5.0273,0.4104 -5.0273,0.4104 z"
       style="color:#000000;display:inline;overflow:visible;visibility:visible;opacity:0.56734691;fill:#000000;fill-opacity:1;fill-rule:nonzero;stroke:none;stroke-width:1px;marker:none;filter:url(#filter14506-80-3);enable-background:accumulate" />
    <path
       transform="matrix(0.93744911,0,0,0.93768967,1620.8226,2196.0552)"
       inkscape:connector-curvature="0"
       id="path20185"
       d="m -1412.5395,-1158.7811 -32.5646,33.7015 c 0,0 -0.7309,1.2993 -0.8121,2.9235 -0.081,1.6242 0.3248,3.0859 0.3248,3.0859 0,0 0.8121,-4.2228 2.2739,-5.847 1.4617,-1.6241 31.9149,-32.3209 31.9149,-32.3209 z"
       style="color:#000000;display:inline;overflow:visible;visibility:visible;opacity:0.56734691;fill:#000000;fill-opacity:1;fill-rule:nonzero;stroke:none;stroke-width:1px;marker:none;filter:url(#filter14506-80-6-8);enable-background:accumulate" />
    <path
       transform="matrix(0.93744911,0,0,0.93768967,1620.8226,2196.0552)"
       inkscape:connector-curvature="0"
       id="path20187"
       d="m -1324.5275,-1147.2279 30.4476,30.4476 c 0,0 33.4589,-29.89 34.0166,-30.8937 0.5576,-1.0038 -33.5705,33.5704 -33.5705,33.5704 l -32.2321,-32.4551 z"
       style="color:#000000;display:inline;overflow:visible;visibility:visible;opacity:0.56734691;fill:#000000;fill-opacity:1;fill-rule:nonzero;stroke:none;stroke-width:1px;marker:none;filter:url(#filter14506-80-6-94);enable-background:accumulate" />
    <path
       transform="matrix(0.93744911,0,0,0.93768967,1620.8226,2196.0552)"
       sodipodi:nodetypes="ccczc"
       inkscape:connector-curvature="0"
       id="path20189"
       d="m -1282.4724,-1210.88 c 0,0 1.8873,-3.6637 4.8849,-3.7192 2.9976,-0.055 3.4972,3.9968 3.4972,3.9968 0,0 -1.8238,-2.4183 -3.8302,-2.4425 -2.0064,-0.024 -4.5519,2.1649 -4.5519,2.1649 z"
       style="color:#000000;display:inline;overflow:visible;visibility:visible;opacity:0.56734691;fill:#000000;fill-opacity:1;fill-rule:nonzero;stroke:none;stroke-width:1px;marker:none;filter:url(#filter14506-80-6-6);enable-background:accumulate" />
    <path
       transform="matrix(0.93744911,0,0,0.93768967,1620.8226,2196.0552)"
       style="color:#000000;display:inline;overflow:visible;visibility:visible;opacity:0.56734691;fill:#000000;fill-opacity:1;fill-rule:nonzero;stroke:none;stroke-width:1px;marker:none;filter:url(#filter14506-80-6-6);enable-background:accumulate"
       d="m -1298.1265,-1204.7738 c 0,0 1.8873,-3.6637 4.8849,-3.7192 2.9976,-0.055 3.4972,3.9968 3.4972,3.9968 0,0 -2.2204,-2.5536 -3.8302,-2.4425 -1.6099,0.111 -4.5519,2.1649 -4.5519,2.1649 z"
       id="path20191"
       inkscape:connector-curvature="0" />
    <path
       transform="matrix(0.93744911,0,0,0.93768967,1620.8226,2196.0552)"
       sodipodi:nodetypes="ccccszc"
       inkscape:connector-curvature="0"
       id="path20193"
       d="m -1310.3633,-1159.0501 19.5178,-19.7407 c 1.7149,-1.5693 3.5719,-1.7264 5.7995,-0.3346 l 30.2246,26.5441 c 0,0 -26.0853,-21.6601 -31.3597,-25.6338 -0.4902,-0.3692 -1.85,-0.4434 -2.8022,0.032 -0.9523,0.4758 -21.38,19.1325 -21.38,19.1325 z"
       style="color:#000000;display:inline;overflow:visible;visibility:visible;opacity:0.56734691;fill:#000000;fill-opacity:1;fill-rule:nonzero;stroke:none;stroke-width:1px;marker:none;filter:url(#filter14506-80-6-66);enable-background:accumulate" />
    <path
       transform="matrix(0.93744911,0,0,0.93768967,1620.8226,2196.0552)"
       inkscape:connector-curvature="0"
       id="path20195"
       d="m -1307.575,-1156.0388 13.3836,12.1568 13.0489,-9.8146 c 0,0 -12.4913,11.4875 -13.0489,11.376 -0.5577,-0.1115 -13.3836,-13.7182 -13.3836,-13.7182 z"
       style="color:#000000;display:inline;overflow:visible;visibility:visible;opacity:0.56734691;fill:#000000;fill-opacity:1;fill-rule:nonzero;stroke:none;stroke-width:1px;marker:none;filter:url(#filter14506-80-6-67);enable-background:accumulate" />
    <path
       style="color:#000000;display:inline;overflow:visible;visibility:visible;opacity:0.6857143;fill:#000000;fill-opacity:1;fill-rule:nonzero;stroke:none;stroke-width:2.59126377;marker:none;filter:url(#filter14511-1);enable-background:accumulate"
       d="m -1269.6991,-1208.0559 c -1.0072,0.083 -1.9322,0.2662 -2.6875,0.5312 -1.5106,0.5299 -2.2819,1.1806 -2.5,2.625 -0.2411,1.5967 0.1437,2.1992 0.9063,2.7812 0.7625,0.5821 2.1451,0.987 3.6562,1.125 3.0223,0.2762 6.375,-0.375 6.375,-0.375 0.8234,-0.163 1.7118,0.5072 1.7812,1.3438 l 3.7931,44.1749 1.1389,-0.01 -1.6194,-50.9477 c -1.2298,-0.3219 -4.1371,-1.0363 -7.6563,-1.25 -1.0938,-0.067 -2.1803,-0.083 -3.1875,0 z"
       id="path20197"
       inkscape:connector-curvature="0"
       sodipodi:nodetypes="ccscccccccccc"
       transform="matrix(-0.93743848,-0.00446535,0.00446421,-0.93767903,-832.3306,44.736168)"
       inkscape:transform-center-x="-18.293157"
       inkscape:transform-center-y="-65.305682" />
    <path
       transform="matrix(0.93744911,0,0,0.93768967,1620.8226,2196.0552)"
       inkscape:connector-curvature="0"
       id="path20199"
       d="m -1358.6983,-1122.7245 c 0,0 0.7308,-3.0048 4.5476,-3.0048 3.8168,0 6.8216,3.8168 6.8216,3.8168 0,0 -5.6846,-2.4362 -7.7149,-2.4362 -2.0302,0 -3.6543,1.6242 -3.6543,1.6242 z"
       style="color:#000000;display:inline;overflow:visible;visibility:visible;opacity:0.56734691;fill:#000000;fill-opacity:1;fill-rule:nonzero;stroke:none;stroke-width:1px;marker:none;filter:url(#filter14506-80-6-61);enable-background:accumulate" />
    <path
       transform="matrix(0.93744911,0,0,0.93768967,1620.8226,2196.0552)"
       style="color:#000000;display:inline;overflow:visible;visibility:visible;opacity:0.56734691;fill:#000000;fill-opacity:1;fill-rule:nonzero;stroke:none;stroke-width:1px;marker:none;filter:url(#filter14506-80-6-61);enable-background:accumulate"
       d="m -1352.0392,-1107.1325 c 0,0 0.7308,-3.0048 4.5476,-3.0048 3.8168,0 6.8216,3.8168 6.8216,3.8168 0,0 -5.6846,-2.4362 -7.7149,-2.4362 -2.0302,0 -3.6543,1.6242 -3.6543,1.6242 z"
       id="path20201"
       inkscape:connector-curvature="0" />
    <path
       transform="matrix(0.93744911,0,0,0.93768967,1620.8226,2196.0552)"
       inkscape:connector-curvature="0"
       id="path20203"
       d="m -1363.1648,-1131.0078 3.5732,44.2586 c 0,0 3.898,-0.6497 5.847,-0.6497 1.949,0 5.9282,0.8121 6.3342,2.8423 0.4061,2.0302 -0.2436,2.3551 -0.2436,2.3551 0,0 -0.406,-4.0605 -6.9027,-3.8168 -6.4967,0.2436 -6.1718,0.2436 -6.1718,0.2436 l -3.2484,-46.0452 z"
       style="color:#000000;display:inline;overflow:visible;visibility:visible;opacity:0.56734691;fill:#000000;fill-opacity:1;fill-rule:nonzero;stroke:none;stroke-width:1px;marker:none;filter:url(#filter14506-80-6-4);enable-background:accumulate" />
    <path
       transform="matrix(0.93744911,0,0,0.93768967,1620.8226,2196.0552)"
       inkscape:connector-curvature="0"
       id="path20205"
       d="m -1412.9456,-1121.9125 14.0491,-13.8054 c 0,0 0.9745,-0.7309 1.949,-0.7309 0.9745,0 2.1114,0.4061 2.1114,0.4061 l 19.0028,18.0282 c 0,0 1.2181,1.6242 1.4617,2.3551 0.2437,0.7309 -20.4645,-19.0028 -21.2766,-19.3276 -0.8121,-0.3249 -2.0302,-0.3249 -2.9235,0.3248 -0.8933,0.6497 -14.3739,12.7497 -14.3739,12.7497 z"
       style="color:#000000;display:inline;overflow:visible;visibility:visible;opacity:0.56734691;fill:#000000;fill-opacity:1;fill-rule:nonzero;stroke:none;stroke-width:1px;marker:none;filter:url(#filter14506-80-6-2);enable-background:accumulate" />
    <path
       transform="matrix(0.93744911,0,0,0.93768967,1620.8226,2196.0552)"
       inkscape:connector-curvature="0"
       id="path20207"
       d="m -1409.7784,-1119.5574 11.6128,14.7799 c 0,0 -11.8565,-13.4806 -11.9377,-13.8054 -0.081,-0.3248 0.3249,-0.9745 0.3249,-0.9745 z"
       style="color:#000000;display:inline;overflow:visible;visibility:visible;opacity:0.56734691;fill:#000000;fill-opacity:1;fill-rule:nonzero;stroke:none;stroke-width:1px;marker:none;filter:url(#filter14506-80-6-1);enable-background:accumulate" />
    <path
       transform="matrix(0.93744911,0,0,0.93768967,1620.8226,2196.0552)"
       inkscape:connector-curvature="0"
       id="path20209"
       d="m -1377.2139,-1114.1977 c 0,0 -0.812,0 -1.2181,0.2437 -0.406,0.2436 -26.0679,27.6108 -26.0679,27.6108 l -31.0216,-33.2954 0,-1.1369 c 0,0 -1.2181,1.0557 -0.4873,1.949 0.7309,0.8933 31.6713,34.1887 31.6713,34.1887 z"
       style="color:#000000;display:inline;overflow:visible;visibility:visible;opacity:0.56734691;fill:#000000;fill-opacity:1;fill-rule:nonzero;stroke:none;stroke-width:1px;marker:none;filter:url(#filter14506-80-6-3);enable-background:accumulate" />
    <path
       transform="matrix(0.93744911,0,0,0.93768967,1620.8226,2196.0552)"
       inkscape:connector-curvature="0"
       id="path20211"
       d="m -1447.3658,-1178.3983 -4.2543,2.8108 c 0,0 1.6713,-3.0387 4.4062,-3.0387 2.7349,0 3.7225,3.4945 3.7225,3.4945 0,0 -2.279,-2.5829 -4.1783,-2.279 -1.8992,0.3038 -3.9504,1.8232 0.3039,-0.9876 z"
       style="color:#000000;display:inline;overflow:visible;visibility:visible;opacity:0.56734691;fill:#000000;fill-opacity:1;fill-rule:nonzero;stroke:none;stroke-width:1px;marker:none;filter:url(#filter14506-80-6-12);enable-background:accumulate" />
    <path
       transform="matrix(0.93744911,0,0,0.93768967,1620.8226,2196.0552)"
       style="color:#000000;display:inline;overflow:visible;visibility:visible;opacity:0.56734691;fill:#000000;fill-opacity:1;fill-rule:nonzero;stroke:none;stroke-width:1px;marker:none;filter:url(#filter14506-80-6-12);enable-background:accumulate"
       d="m -1431.4882,-1184.172 -4.2543,2.8108 c 0,0 1.6713,-3.0387 4.4062,-3.0387 2.7349,0 3.7225,3.4945 3.7225,3.4945 0,0 -2.279,-2.5829 -4.1783,-2.279 -1.8992,0.3038 -3.9504,1.8232 0.3039,-0.9876 z"
       id="path20213"
       inkscape:connector-curvature="0" />
    <path
       transform="matrix(0.93744911,0,0,0.93768967,1620.8226,2196.0552)"
       inkscape:connector-curvature="0"
       id="path20215"
       d="m -1449.2,-1225.014 13.0012,-13.0879 c 0,0 1.2134,-0.8667 2.1669,-0.8667 0.9534,0 2.5135,0.9534 2.5135,0.9534 0,0 13.5213,12.8278 13.7813,13.7812 0.26,0.9535 0.26,2.1669 0.26,2.1669 0,0 -0.6067,-2.1669 -3.467,-4.6804 -2.8602,-2.5136 -11.6144,-10.661 -11.6144,-10.661 0,0 -0.8667,-0.52 -1.7335,-0.3467 -0.8667,0.1733 -14.908,12.7412 -14.908,12.7412 z"
       style="color:#000000;display:inline;overflow:visible;visibility:visible;opacity:0.56734691;fill:#000000;fill-opacity:1;fill-rule:nonzero;stroke:none;stroke-width:1px;marker:none;filter:url(#filter14506-80-6-121);enable-background:accumulate" />
    <path
       transform="matrix(0.93744911,0,0,0.93768967,1620.8226,2196.0552)"
       inkscape:connector-curvature="0"
       id="path20217"
       d="m -1466.9683,-1231.5146 c 0,0 -0.6067,0.78 -0.26,1.0401 0.3467,0.26 27.5625,26.3491 27.5625,26.3491 l 1.6468,-0.9535 c 0,0 -0.7801,1.4735 -1.3868,1.5602 -0.6067,0.087 -0.6934,0 -6.1539,-4.7671 -5.4605,-4.7671 -22.9688,-21.322 -22.6221,-22.1021 0.3467,-0.78 1.2135,-1.1267 1.2135,-1.1267 z"
       style="color:#000000;display:inline;overflow:visible;visibility:visible;opacity:0.56734691;fill:#000000;fill-opacity:1;fill-rule:nonzero;stroke:none;stroke-width:1px;marker:none;filter:url(#filter14506-80-6-82);enable-background:accumulate" />
    <ellipse
       id="path20221"
       style="color:#000000;display:inline;overflow:visible;visibility:visible;fill:#000000;fill-opacity:1;fill-rule:nonzero;stroke:#0055d4;stroke-width:2.39017963;stroke-opacity:1;marker:none;enable-background:accumulate"
       cx="342.55212"
       cy="1080.3125"
       rx="51.78162"
       ry="51.794907" />
    <ellipse
       id="path20223"
       style="color:#000000;display:inline;overflow:visible;visibility:visible;fill:#000000;fill-opacity:1;fill-rule:nonzero;stroke:none;stroke-width:1;marker:none;enable-background:accumulate"
       cx="342.55203"
       cy="1080.3129"
       rx="54.726597"
       ry="54.740639" />
    <ellipse
       style="color:#000000;display:inline;overflow:visible;visibility:visible;opacity:0.4820717;fill:#000000;fill-opacity:1;fill-rule:nonzero;stroke:none;stroke-width:1;marker:none;enable-background:accumulate"
       id="path20225"
       cx="342.55203"
       cy="1080.3129"
       rx="54.726597"
       ry="54.740639" />
    <circle
       id="path20227"
       style="color:#000000;display:inline;overflow:visible;visibility:visible;fill:#000000;fill-opacity:1;fill-rule:nonzero;stroke:none;stroke-width:1.35547781;marker:none;filter:url(#filter4645);enable-background:accumulate"
       transform="matrix(0.61054462,0,0,0.61070127,135.33644,968.20282)"
       cx="339.39481"
       cy="170.44995"
       r="68.136078" />
    <path
       transform="matrix(0.92439348,0,0,0.92463067,1603.4299,2180.4907)"
       inkscape:connector-curvature="0"
       id="path20229"
       d="m -1392.4809,-1232.0483 c -0.8019,0.033 -1.509,0.2328 -2.0475,0.6749 -0.2982,2.8855 0.7189,6.5887 2.9222,8.6149 -0.1902,-0.2464 -0.4195,-0.6929 -0.7355,-1.4291 -0.9777,-1.6628 -2.7369,-9.0374 0.656,-5.4787 1.989,4.1785 2.6367,9.2781 5.7252,12.9819 2.3538,3.8651 6.8255,4.1147 10.5955,5.0816 3.2734,1.588 4.3264,6.2894 7.8522,7.2255 2.5104,3.2637 -0.6389,7.349 -2.0078,10.5006 -2.7461,4.8644 2.8883,7.8174 4.6716,11.632 3.6086,4.9811 7.031,11.5771 4.3138,17.8452 -1.6058,4.5347 -1.9956,9.5445 -3.1409,14.2721 -0.5096,3.3536 -1.2328,10.3996 2.3855,11.0564 0.7253,-3.6267 0.4384,-7.5298 3.3595,-10.2624 2.8735,-5.4672 8.4716,-8.8774 12.7226,-12.7436 1.9606,-2.3297 5.7601,-7.6173 9.5221,-10.203 1.6683,-2.8236 1.1693,-7.6219 4.2343,-10.4213 2.348,-2.4836 3.5146,-8.2489 -0.994,-8.9324 -6.0092,-2.3954 -10.9523,-6.9424 -14.9491,-12.0886 -4.3284,-2.3316 -7.0463,-2.9684 -11.6629,-4.4538 -0.281,-0.091 -0.6668,2.4248 -1.5084,2.4164 -1.1507,-0.011 0.2655,-3.2189 -2.2349,-3.1236 -0.4188,1.379 -2.8098,3.5597 -4.453,4.0295 -0.6343,-1.0347 -2.8863,-3.2068 -2.7234,-4.9624 -0.075,-3.5364 -4.592,-3.6234 -2.8626,-6.9872 -1.0331,-2.9637 -5.1833,4.3511 -6.8781,-0.6552 -1.002,-4.349 -1.1763,-11.7175 -5.1885,-12.545 -1.9336,-0.7657 -5.1682,-2.1428 -7.5739,-2.0447 z m 24.8308,12.2251 c 0.3973,0.1244 2.1717,-0.4166 4.1253,-0.3854 1.8411,0.03 4.9133,1.545 5.4703,1.0618 -0.868,-2.878 -6.9897,-2.3488 -6.8746,-2.3354 -0.9249,0.7782 -3.383,1.4105 -2.721,1.659 z m 20.154,5.4712 c -0.1529,0.27 -0.9304,0.3375 -0.9313,-0.2161 0.3055,-0.5351 0.9002,-0.076 0.9313,0.2161 z m -3.6979,-1.0674 c -3.4763,-0.1072 -1.191,-1.878 -3.0367,-1.8379 -1.2939,0.027 -0.927,1.3862 -3.1699,1.1772 2.062,0.9711 2.2009,0.732 3.6375,1.4994 2.0386,-0.1206 3.2905,-0.092 2.5691,-0.8387 z"
       style="font-size:12px;fill:#000000;fill-opacity:1;fill-rule:nonzero;stroke:#ff7d23;stroke-width:0.43089032;stroke-opacity:1;filter:url(#filter15293)"
       sodipodi:nodetypes="cccccccccccccccccccssccccccccscccccccsccc" />
    <path
       sodipodi:nodetypes="cccccccccccccccccccssccccccccscccccccsccc"
       style="font-size:12px;fill:#000000;fill-opacity:1;fill-rule:nonzero;stroke:#d4ff2a;stroke-width:0.39836332;stroke-opacity:1"
       d="m 316.22963,1041.3012 c -0.7413,0.032 -1.39491,0.2153 -1.89274,0.6239 -0.27564,2.6682 0.66457,6.0923 2.70124,7.9657 -0.17558,-0.2286 -0.38768,-0.6406 -0.67989,-1.3214 -0.90379,-1.5374 -2.52991,-8.3563 0.60641,-5.0657 1.83862,3.8634 2.4374,8.5786 5.29234,12.0035 2.17593,3.5736 6.30954,3.8046 9.79448,4.6985 3.02593,1.4683 3.99928,5.8152 7.25853,6.681 2.32051,3.0176 -0.59066,6.7951 -1.85607,9.7089 -2.5384,4.4978 2.66998,7.2285 4.31844,10.7557 3.33579,4.6053 6.49943,10.7042 3.9876,16.5 -1.48436,4.1929 -1.84471,8.8251 -2.90341,13.1963 -0.47101,3.1008 -1.13955,9.6161 2.20511,10.2233 0.67048,-3.3535 0.40528,-6.9623 3.10553,-9.4891 2.65624,-5.055 7.83106,-8.2083 11.76067,-11.7832 1.81245,-2.154 5.32462,-7.043 8.80216,-9.4337 1.54219,-2.6107 1.08093,-7.0478 3.91415,-9.6362 2.17051,-2.2963 3.24888,-7.6269 -0.91883,-8.2589 -5.55488,-2.2151 -10.12426,-6.4194 -13.81882,-11.1776 -4.00118,-2.1558 -6.51351,-2.7447 -10.78108,-4.118 -0.2599,-0.086 -0.61643,2.2418 -1.39436,2.2341 -1.06378,0 0.2453,-2.9761 -2.06592,-2.8881 -0.38715,1.275 -2.59735,3.2915 -4.11633,3.7258 -0.58632,-0.9566 -2.6681,-2.9651 -2.51755,-4.5884 -0.069,-3.2698 -4.24478,-3.3503 -2.64616,-6.4603 -0.95493,-2.7406 -4.79137,4.0229 -6.358,-0.6059 -0.92624,-4.0214 -1.08739,-10.8344 -4.79626,-11.5996 -1.78736,-0.7081 -4.7775,-1.9815 -7.00124,-1.8906 z m 22.95342,11.3038 c 0.36725,0.1138 2.00747,-0.3852 3.81337,-0.3565 1.70193,0.026 4.54186,1.4287 5.05678,0.9817 -0.80239,-2.661 -6.46122,-2.1718 -6.35484,-2.1592 -0.85498,0.7195 -3.12722,1.3041 -2.51531,1.534 z m 18.6302,5.0586 c -0.14145,0.2499 -0.86007,0.3122 -0.8609,-0.1997 0.28243,-0.4949 0.8322,-0.069 0.8609,0.1997 z m -3.41826,-0.9869 c -3.21352,-0.099 -1.10101,-1.7365 -2.80719,-1.6991 -1.196,0.026 -0.85689,1.2815 -2.93023,1.0882 1.90617,0.8978 2.0346,0.6769 3.36249,1.3865 1.88446,-0.1114 3.04179,-0.086 2.37493,-0.7756 z"
       id="path20231"
       inkscape:connector-curvature="0" />
    <path
       style="opacity:0.87980772;fill:#000000;fill-opacity:1;stroke:none"
       d="m 359.30907,1032.9912 c 3.66843,1.9379 8.57983,4.9612 10.74695,6.9177 2.49606,1.3166 6.57282,4.713 10.13825,7.3894 0,0 -4.93156,-5.5638 -9.3686,-8.7275 -3.55258,-2.4529 -7.56064,-4.1725 -11.5166,-5.5796 z m 18.22302,9.8417 4.78948,5.8638 4.26911,4.4485 -3.53333,-5.0822 z m -9.50618,-2.6214 c -5.97838,-3.7513 -16.68882,-8.8029 -16.68882,-8.8029 0,0 5.23668,5.6546 7.20696,12.5727 1.97041,6.9178 -0.59349,12.1853 -0.59349,12.1853 0,0 7.81507,1.4332 17.32646,7.6705 9.63799,6.3201 15.04475,19.3868 15.04475,19.3868 0,0 0.55149,-7.335 -2.39864,-17.7932 -2.94999,-10.4578 -7.01892,-15.9691 -7.01892,-15.9691 0,0 -6.89993,-5.4989 -12.8783,-9.2501 z m 15.19426,11.0914 c 2.15187,3.8592 4.82334,7.9552 5.68289,11.2754 1.85798,3.1023 3.39793,8.3544 4.95142,14.3334 0,0 -0.20219,-11.0459 -2.74725,-15.4294 -2.60278,-4.2324 -7.88706,-10.1794 -7.88706,-10.1794 z"
       id="path20233"
       inkscape:connector-curvature="0"
       sodipodi:nodetypes="cccccccccczczcsczczccccc" />
  </g>
</svg>
